<?xml version="1.0" encoding="UTF-8"?>
<svg xmlns="http://www.w3.org/2000/svg" width="1180" height="664" viewBox="0 0 1180 664" fill="none" style="background: transparent;">

<path d="M469.384 237.272H500.392V251.96H469.384V237.272ZM470.728 275H451.72V207.8H504.424V222.488H470.728V275ZM511.314 275V207.8H530.322V259.928H562.386V275H511.314ZM578.056 275V246.584L582.472 258.008L552.424 207.8H572.488L594.184 244.184H582.568L604.36 207.8H622.792L592.84 258.008L597.064 246.584V275H578.056ZM625.345 275V207.8H644.353V275H625.345ZM655.876 275V207.8H671.524L708.58 252.536H701.188V207.8H719.812V275H704.164L667.108 230.264H674.5V275H655.876Z" fill="url(#paint0_linear_29_1726)"/>
<path d="M751.024 275V222.872H730.384V207.8H790.576V222.872H770.032V275H751.024ZM781.419 275L811.083 207.8H829.803L859.563 275H839.787L816.555 217.112H824.043L800.811 275H781.419ZM797.643 261.944L802.539 247.928H835.371L840.267 261.944H797.643ZM877.143 260.12L876.087 238.808L904.983 207.8H925.911L897.111 239L886.551 250.04L877.143 260.12ZM860.151 275V207.8H878.967V275H860.151ZM905.271 275L883.383 247.256L895.767 234.008L927.351 275H905.271ZM945.011 233.816H976.211V248.024H945.011V233.816ZM946.355 260.312H981.491V275H927.539V207.8H980.243V222.488H946.355V260.312Z" fill="url(#paint1_linear_29_1726)"/>
<path d="M485.752 304.16C485.176 303.051 484.376 302.219 483.352 301.664C482.328 301.088 481.144 300.8 479.8 300.8C478.328 300.8 477.016 301.131 475.864 301.792C474.712 302.453 473.805 303.392 473.144 304.608C472.504 305.824 472.184 307.232 472.184 308.832C472.184 310.432 472.504 311.851 473.144 313.088C473.805 314.304 474.712 315.243 475.864 315.904C477.016 316.565 478.328 316.896 479.8 316.896C481.784 316.896 483.395 316.341 484.632 315.232C485.869 314.123 486.627 312.619 486.904 310.72H478.552V307.808H490.808V310.656C490.573 312.384 489.955 313.973 488.952 315.424C487.971 316.875 486.68 318.037 485.08 318.912C483.501 319.765 481.741 320.192 479.8 320.192C477.709 320.192 475.8 319.712 474.072 318.752C472.344 317.771 470.968 316.416 469.944 314.688C468.941 312.96 468.44 311.008 468.44 308.832C468.44 306.656 468.941 304.704 469.944 302.976C470.968 301.248 472.344 299.904 474.072 298.944C475.821 297.963 477.731 297.472 479.8 297.472C482.168 297.472 484.269 298.059 486.104 299.232C487.96 300.384 489.304 302.027 490.136 304.16H485.752ZM508.054 317.056H515.574V320H504.406V297.76H508.054V317.056ZM538.769 320.224C536.699 320.224 534.79 319.744 533.041 318.784C531.313 317.803 529.937 316.448 528.913 314.72C527.91 312.971 527.409 311.008 527.409 308.832C527.409 306.656 527.91 304.704 528.913 302.976C529.937 301.248 531.313 299.904 533.041 298.944C534.79 297.963 536.699 297.472 538.769 297.472C540.859 297.472 542.769 297.963 544.497 298.944C546.246 299.904 547.622 301.248 548.625 302.976C549.627 304.704 550.129 306.656 550.129 308.832C550.129 311.008 549.627 312.971 548.625 314.72C547.622 316.448 546.246 317.803 544.497 318.784C542.769 319.744 540.859 320.224 538.769 320.224ZM538.769 317.056C540.241 317.056 541.553 316.725 542.705 316.064C543.857 315.381 544.753 314.421 545.393 313.184C546.054 311.925 546.385 310.475 546.385 308.832C546.385 307.189 546.054 305.749 545.393 304.512C544.753 303.275 543.857 302.325 542.705 301.664C541.553 301.003 540.241 300.672 538.769 300.672C537.297 300.672 535.985 301.003 534.833 301.664C533.681 302.325 532.774 303.275 532.113 304.512C531.473 305.749 531.153 307.189 531.153 308.832C531.153 310.475 531.473 311.925 532.113 313.184C532.774 314.421 533.681 315.381 534.833 316.064C535.985 316.725 537.297 317.056 538.769 317.056ZM575.622 308.576C576.817 308.789 577.83 309.419 578.662 310.464C579.494 311.509 579.91 312.693 579.91 314.016C579.91 315.147 579.612 316.171 579.014 317.088C578.438 317.984 577.596 318.699 576.486 319.232C575.377 319.744 574.086 320 572.614 320H563.718V297.76H572.198C573.713 297.76 575.014 298.016 576.102 298.528C577.19 299.04 578.012 299.733 578.566 300.608C579.121 301.461 579.398 302.421 579.398 303.488C579.398 304.768 579.057 305.835 578.374 306.688C577.692 307.541 576.774 308.171 575.622 308.576ZM567.366 307.104H571.878C573.073 307.104 574.001 306.837 574.662 306.304C575.345 305.749 575.686 304.96 575.686 303.936C575.686 302.933 575.345 302.155 574.662 301.6C574.001 301.024 573.073 300.736 571.878 300.736H567.366V307.104ZM572.294 317.024C573.532 317.024 574.502 316.725 575.206 316.128C575.91 315.531 576.262 314.699 576.262 313.632C576.262 312.544 575.889 311.68 575.142 311.04C574.396 310.4 573.404 310.08 572.166 310.08H567.366V317.024H572.294ZM607.283 315.456H597.971L596.371 320H592.563L600.531 297.728H604.755L612.723 320H608.883L607.283 315.456ZM606.259 312.48L602.643 302.144L598.995 312.48H606.259ZM629.835 317.056H637.355V320H626.187V297.76H629.835V317.056ZM667.502 308.832C667.502 306.656 668.004 304.704 669.006 302.976C670.03 301.248 671.406 299.904 673.134 298.944C674.884 297.963 676.793 297.472 678.862 297.472C681.23 297.472 683.332 298.059 685.166 299.232C687.022 300.384 688.366 302.027 689.198 304.16H684.814C684.238 302.987 683.438 302.112 682.414 301.536C681.39 300.96 680.206 300.672 678.862 300.672C677.39 300.672 676.078 301.003 674.926 301.664C673.774 302.325 672.868 303.275 672.206 304.512C671.566 305.749 671.246 307.189 671.246 308.832C671.246 310.475 671.566 311.915 672.206 313.152C672.868 314.389 673.774 315.349 674.926 316.032C676.078 316.693 677.39 317.024 678.862 317.024C680.206 317.024 681.39 316.736 682.414 316.16C683.438 315.584 684.238 314.709 684.814 313.536H689.198C688.366 315.669 687.022 317.312 685.166 318.464C683.332 319.616 681.23 320.192 678.862 320.192C676.772 320.192 674.862 319.712 673.134 318.752C671.406 317.771 670.03 316.416 669.006 314.688C668.004 312.96 667.502 311.008 667.502 308.832ZM713.612 320.224C711.543 320.224 709.634 319.744 707.884 318.784C706.156 317.803 704.78 316.448 703.756 314.72C702.754 312.971 702.252 311.008 702.252 308.832C702.252 306.656 702.754 304.704 703.756 302.976C704.78 301.248 706.156 299.904 707.884 298.944C709.634 297.963 711.543 297.472 713.612 297.472C715.703 297.472 717.612 297.963 719.34 298.944C721.09 299.904 722.466 301.248 723.468 302.976C724.471 304.704 724.972 306.656 724.972 308.832C724.972 311.008 724.471 312.971 723.468 314.72C722.466 316.448 721.09 317.803 719.34 318.784C717.612 319.744 715.703 320.224 713.612 320.224ZM713.612 317.056C715.084 317.056 716.396 316.725 717.548 316.064C718.7 315.381 719.596 314.421 720.236 313.184C720.898 311.925 721.228 310.475 721.228 308.832C721.228 307.189 720.898 305.749 720.236 304.512C719.596 303.275 718.7 302.325 717.548 301.664C716.396 301.003 715.084 300.672 713.612 300.672C712.14 300.672 710.828 301.003 709.676 301.664C708.524 302.325 707.618 303.275 706.956 304.512C706.316 305.749 705.996 307.189 705.996 308.832C705.996 310.475 706.316 311.925 706.956 313.184C707.618 314.421 708.524 315.381 709.676 316.064C710.828 316.725 712.14 317.056 713.612 317.056ZM756.834 320H753.186L742.21 303.392V320H738.562V297.728H742.21L753.186 314.304V297.728H756.834V320ZM778.953 320.224C777.459 320.224 776.115 319.968 774.921 319.456C773.726 318.923 772.787 318.176 772.105 317.216C771.422 316.256 771.081 315.136 771.081 313.856H774.985C775.07 314.816 775.443 315.605 776.105 316.224C776.787 316.843 777.737 317.152 778.953 317.152C780.211 317.152 781.193 316.853 781.897 316.256C782.601 315.637 782.953 314.848 782.953 313.888C782.953 313.141 782.729 312.533 782.281 312.064C781.854 311.595 781.31 311.232 780.649 310.976C780.009 310.72 779.113 310.443 777.961 310.144C776.51 309.76 775.326 309.376 774.409 308.992C773.513 308.587 772.745 307.968 772.105 307.136C771.465 306.304 771.145 305.195 771.145 303.808C771.145 302.528 771.465 301.408 772.105 300.448C772.745 299.488 773.641 298.752 774.793 298.24C775.945 297.728 777.278 297.472 778.793 297.472C780.947 297.472 782.707 298.016 784.073 299.104C785.459 300.171 786.227 301.643 786.377 303.52H782.345C782.281 302.709 781.897 302.016 781.193 301.44C780.489 300.864 779.561 300.576 778.409 300.576C777.363 300.576 776.51 300.843 775.849 301.376C775.187 301.909 774.857 302.677 774.857 303.68C774.857 304.363 775.059 304.928 775.465 305.376C775.891 305.803 776.425 306.144 777.065 306.4C777.705 306.656 778.579 306.933 779.689 307.232C781.161 307.637 782.355 308.043 783.273 308.448C784.211 308.853 785.001 309.483 785.641 310.336C786.302 311.168 786.633 312.288 786.633 313.696C786.633 314.827 786.323 315.893 785.705 316.896C785.107 317.899 784.222 318.709 783.049 319.328C781.897 319.925 780.531 320.224 778.953 320.224ZM804.553 297.76V311.936C804.553 313.621 804.99 314.891 805.865 315.744C806.761 316.597 807.998 317.024 809.577 317.024C811.177 317.024 812.414 316.597 813.289 315.744C814.185 314.891 814.633 313.621 814.633 311.936V297.76H818.281V311.872C818.281 313.685 817.886 315.221 817.097 316.48C816.308 317.739 815.252 318.677 813.929 319.296C812.606 319.915 811.145 320.224 809.545 320.224C807.945 320.224 806.484 319.915 805.161 319.296C803.86 318.677 802.825 317.739 802.057 316.48C801.289 315.221 800.905 313.685 800.905 311.872V297.76H804.553ZM836.679 317.056H844.199V320H833.031V297.76H836.679V317.056ZM871.618 297.76V300.736H865.698V320H862.05V300.736H856.098V297.76H871.618ZM888.96 297.76V320H885.312V297.76H888.96ZM922.022 320H918.374L907.398 303.392V320H903.75V297.728H907.398L918.374 314.304V297.728H922.022V320ZM952.908 304.16C952.332 303.051 951.532 302.219 950.508 301.664C949.484 301.088 948.3 300.8 946.956 300.8C945.484 300.8 944.172 301.131 943.02 301.792C941.868 302.453 940.961 303.392 940.3 304.608C939.66 305.824 939.34 307.232 939.34 308.832C939.34 310.432 939.66 311.851 940.3 313.088C940.961 314.304 941.868 315.243 943.02 315.904C944.172 316.565 945.484 316.896 946.956 316.896C948.94 316.896 950.551 316.341 951.788 315.232C953.025 314.123 953.783 312.619 954.06 310.72H945.708V307.808H957.964V310.656C957.729 312.384 957.111 313.973 956.108 315.424C955.127 316.875 953.836 318.037 952.236 318.912C950.657 319.765 948.897 320.192 946.956 320.192C944.865 320.192 942.956 319.712 941.228 318.752C939.5 317.771 938.124 316.416 937.1 314.688C936.097 312.96 935.596 311.008 935.596 308.832C935.596 306.656 936.097 304.704 937.1 302.976C938.124 301.248 939.5 299.904 941.228 298.944C942.977 297.963 944.887 297.472 946.956 297.472C949.324 297.472 951.425 298.059 953.26 299.232C955.116 300.384 956.46 302.027 957.292 304.16H952.908Z" fill="#6D6D6D"/>
<path d="M445.34 352.908C445.72 352.847 471.703 352.753 503.081 352.699C561.694 352.597 562.671 352.606 560.368 353.201C559.492 353.428 446.068 353.382 445.18 353.155C444.887 353.08 444.96 352.969 445.34 352.908Z" fill="#7F7F7F"/>
<path d="M588.94 350.48C588.94 351.293 588.753 352.04 588.38 352.72C588.007 353.387 587.433 353.927 586.66 354.34C585.887 354.753 584.927 354.96 583.78 354.96H581.66V360H578.24V345.96H583.78C584.9 345.96 585.847 346.153 586.62 346.54C587.393 346.927 587.973 347.46 588.36 348.14C588.747 348.82 588.94 349.6 588.94 350.48ZM583.52 352.24C584.173 352.24 584.66 352.087 584.98 351.78C585.3 351.473 585.46 351.04 585.46 350.48C585.46 349.92 585.3 349.487 584.98 349.18C584.66 348.873 584.173 348.72 583.52 348.72H581.66V352.24H583.52ZM606.88 360L603.96 354.7H603.14V360H599.72V345.96H605.46C606.567 345.96 607.507 346.153 608.28 346.54C609.067 346.927 609.654 347.46 610.04 348.14C610.427 348.807 610.62 349.553 610.62 350.38C610.62 351.313 610.354 352.147 609.82 352.88C609.3 353.613 608.527 354.133 607.5 354.44L610.74 360H606.88ZM603.14 352.28H605.26C605.887 352.28 606.354 352.127 606.66 351.82C606.98 351.513 607.14 351.08 607.14 350.52C607.14 349.987 606.98 349.567 606.66 349.26C606.354 348.953 605.887 348.8 605.26 348.8H603.14V352.28ZM625.187 345.96V360H621.767V345.96H625.187ZM649.846 345.96L644.866 360H640.586L635.606 345.96H639.246L642.726 356.56L646.226 345.96H649.846ZM669.015 357.52H663.775L662.935 360H659.355L664.435 345.96H668.395L673.475 360H669.855L669.015 357.52ZM668.135 354.88L666.395 349.74L664.675 354.88H668.135ZM694.121 345.96V348.7H690.401V360H686.981V348.7H683.261V345.96H694.121ZM708.258 348.7V351.54H712.838V354.18H708.258V357.26H713.438V360H704.838V345.96H713.438V348.7H708.258ZM741.316 357.36H745.796V360H737.896V345.96H741.316V357.36ZM759.848 345.96V360H756.428V345.96H759.848ZM787.226 345.96V360H783.806V351.58L780.666 360H777.906L774.746 351.56V360H771.326V345.96H775.366L779.306 355.68L783.206 345.96H787.226ZM802.105 345.96V360H798.685V345.96H802.105ZM823.684 345.96V348.7H819.964V360H816.544V348.7H812.824V345.96H823.684ZM837.82 348.7V351.54H842.4V354.18H837.82V357.26H843V360H834.4V345.96H843V348.7H837.82ZM859.48 345.96C860.96 345.96 862.254 346.253 863.36 346.84C864.467 347.427 865.32 348.253 865.92 349.32C866.534 350.373 866.84 351.593 866.84 352.98C866.84 354.353 866.534 355.573 865.92 356.64C865.32 357.707 864.46 358.533 863.34 359.12C862.234 359.707 860.947 360 859.48 360H854.22V345.96H859.48ZM859.26 357.04C860.554 357.04 861.56 356.687 862.28 355.98C863 355.273 863.36 354.273 863.36 352.98C863.36 351.687 863 350.68 862.28 349.96C861.56 349.24 860.554 348.88 859.26 348.88H857.64V357.04H859.26Z" fill="#666666"/>
<path d="M941.659 352.706C973.373 352.737 999.513 352.815 999.749 352.879C999.984 352.944 1000.07 353.024 999.938 353.058C999.808 353.092 973.668 353.172 941.85 353.235C922.567 353.273 903.283 353.312 884 353.35C884 353.233 884 353.117 884 353C884 352.883 884 352.767 884 352.65C903.219 352.669 922.44 352.687 941.659 352.706Z" fill="#7F7F7F"/>
<path d="M355.589 431L358.517 416.288H352.781L353.189 414.2H367.085L366.653 416.288H360.917L357.965 431H355.589ZM371.386 431.144C370.138 431.144 369.058 430.92 368.146 430.472C367.234 430.008 366.53 429.368 366.034 428.552C365.538 427.72 365.29 426.744 365.29 425.624C365.29 424.184 365.602 422.904 366.226 421.784C366.85 420.664 367.698 419.784 368.77 419.144C369.858 418.488 371.09 418.16 372.466 418.16C373.618 418.16 374.618 418.384 375.466 418.832C376.314 419.264 376.97 419.888 377.434 420.704C377.914 421.52 378.154 422.504 378.154 423.656C378.154 423.944 378.138 424.24 378.106 424.544C378.074 424.832 378.034 425.104 377.986 425.36H366.97L367.258 423.68H376.882L375.946 424.256C376.09 423.36 376.026 422.608 375.754 422C375.482 421.376 375.05 420.904 374.458 420.584C373.882 420.248 373.186 420.08 372.37 420.08C371.41 420.08 370.562 420.312 369.826 420.776C369.106 421.224 368.546 421.856 368.146 422.672C367.746 423.472 367.546 424.416 367.546 425.504C367.546 426.656 367.874 427.552 368.53 428.192C369.202 428.816 370.218 429.128 371.578 429.128C372.378 429.128 373.122 429 373.81 428.744C374.498 428.472 375.066 428.112 375.514 427.664L376.498 429.32C375.89 429.912 375.13 430.368 374.218 430.688C373.306 430.992 372.362 431.144 371.386 431.144ZM386.61 431.144C385.378 431.144 384.306 430.92 383.394 430.472C382.498 430.008 381.802 429.368 381.306 428.552C380.81 427.72 380.562 426.752 380.562 425.648C380.562 424.208 380.882 422.928 381.522 421.808C382.162 420.672 383.05 419.784 384.186 419.144C385.322 418.488 386.61 418.16 388.05 418.16C389.282 418.16 390.338 418.392 391.218 418.856C392.098 419.304 392.786 419.992 393.282 420.92L391.338 422C391.018 421.376 390.562 420.92 389.97 420.632C389.394 420.328 388.698 420.176 387.882 420.176C386.922 420.176 386.066 420.408 385.314 420.872C384.562 421.32 383.97 421.952 383.538 422.768C383.106 423.568 382.89 424.496 382.89 425.552C382.89 426.656 383.218 427.528 383.874 428.168C384.546 428.808 385.49 429.128 386.706 429.128C387.458 429.128 388.162 428.976 388.818 428.672C389.49 428.368 390.05 427.92 390.498 427.328L392.178 428.528C391.602 429.344 390.818 429.984 389.826 430.448C388.834 430.912 387.762 431.144 386.61 431.144ZM403.757 418.16C404.877 418.16 405.813 418.384 406.565 418.832C407.317 419.28 407.837 419.936 408.125 420.8C408.429 421.648 408.461 422.672 408.221 423.872L406.805 431H404.501L405.917 423.872C406.157 422.72 406.045 421.824 405.581 421.184C405.117 420.544 404.285 420.224 403.085 420.224C401.853 420.224 400.829 420.56 400.013 421.232C399.197 421.888 398.653 422.904 398.381 424.28L397.037 431H394.733L398.285 413.192H400.589L398.837 421.928L398.309 420.944C398.917 419.984 399.685 419.28 400.613 418.832C401.557 418.384 402.605 418.16 403.757 418.16ZM420.693 418.16C421.813 418.16 422.749 418.384 423.501 418.832C424.253 419.28 424.773 419.936 425.061 420.8C425.365 421.648 425.397 422.672 425.157 423.872L423.741 431H421.437L422.853 423.872C423.093 422.72 422.981 421.824 422.517 421.184C422.053 420.544 421.221 420.224 420.021 420.224C418.789 420.224 417.765 420.56 416.949 421.232C416.133 421.888 415.589 422.904 415.317 424.28L413.973 431H411.669L414.189 418.28H416.397L415.677 421.928L415.245 420.944C415.853 419.984 416.621 419.28 417.549 418.832C418.493 418.384 419.541 418.16 420.693 418.16ZM434.557 431.144C433.341 431.144 432.285 430.92 431.389 430.472C430.509 430.008 429.821 429.368 429.325 428.552C428.829 427.72 428.581 426.752 428.581 425.648C428.581 424.208 428.901 422.928 429.541 421.808C430.181 420.672 431.061 419.784 432.181 419.144C433.317 418.488 434.605 418.16 436.045 418.16C437.245 418.16 438.293 418.384 439.189 418.832C440.085 419.28 440.773 419.912 441.253 420.728C441.749 421.544 441.997 422.512 441.997 423.632C441.997 425.072 441.677 426.36 441.037 427.496C440.397 428.616 439.517 429.504 438.397 430.16C437.293 430.816 436.013 431.144 434.557 431.144ZM434.701 429.128C435.661 429.128 436.517 428.896 437.269 428.432C438.021 427.968 438.605 427.336 439.021 426.536C439.453 425.72 439.669 424.792 439.669 423.752C439.669 422.632 439.341 421.76 438.685 421.136C438.029 420.496 437.093 420.176 435.877 420.176C434.933 420.176 434.085 420.408 433.333 420.872C432.581 421.32 431.989 421.952 431.557 422.768C431.125 423.568 430.909 424.496 430.909 425.552C430.909 426.656 431.237 427.528 431.893 428.168C432.549 428.808 433.485 429.128 434.701 429.128ZM444.439 431L447.991 413.192H450.295L446.743 431H444.439ZM457.694 431.144C456.478 431.144 455.422 430.92 454.526 430.472C453.646 430.008 452.958 429.368 452.462 428.552C451.966 427.72 451.718 426.752 451.718 425.648C451.718 424.208 452.038 422.928 452.678 421.808C453.318 420.672 454.198 419.784 455.318 419.144C456.454 418.488 457.742 418.16 459.182 418.16C460.382 418.16 461.43 418.384 462.326 418.832C463.222 419.28 463.91 419.912 464.39 420.728C464.886 421.544 465.134 422.512 465.134 423.632C465.134 425.072 464.814 426.36 464.174 427.496C463.534 428.616 462.654 429.504 461.534 430.16C460.43 430.816 459.15 431.144 457.694 431.144ZM457.838 429.128C458.798 429.128 459.654 428.896 460.406 428.432C461.158 427.968 461.742 427.336 462.158 426.536C462.59 425.72 462.806 424.792 462.806 423.752C462.806 422.632 462.478 421.76 461.822 421.136C461.166 420.496 460.23 420.176 459.014 420.176C458.07 420.176 457.222 420.408 456.47 420.872C455.718 421.32 455.126 421.952 454.694 422.768C454.262 423.568 454.046 424.496 454.046 425.552C454.046 426.656 454.374 427.528 455.03 428.168C455.686 428.808 456.622 429.128 457.838 429.128ZM472.473 435.8C471.273 435.8 470.177 435.64 469.185 435.32C468.193 435.016 467.353 434.576 466.665 434L467.937 432.224C468.433 432.688 469.089 433.056 469.905 433.328C470.737 433.616 471.649 433.76 472.641 433.76C474.145 433.76 475.297 433.416 476.097 432.728C476.897 432.056 477.433 431.024 477.705 429.632L478.305 426.68L479.025 424.304L479.385 421.76L480.081 418.28H482.265L480.081 429.272C479.617 431.576 478.761 433.24 477.513 434.264C476.265 435.288 474.585 435.8 472.473 435.8ZM473.289 430.472C472.185 430.472 471.201 430.264 470.337 429.848C469.489 429.432 468.825 428.84 468.345 428.072C467.865 427.288 467.625 426.36 467.625 425.288C467.625 424.264 467.801 423.328 468.153 422.48C468.521 421.616 469.025 420.864 469.665 420.224C470.305 419.568 471.065 419.064 471.945 418.712C472.841 418.344 473.817 418.16 474.873 418.16C475.833 418.16 476.705 418.328 477.489 418.664C478.289 419 478.921 419.52 479.385 420.224C479.865 420.912 480.105 421.808 480.105 422.912C480.121 424.32 479.857 425.6 479.313 426.752C478.769 427.888 477.985 428.792 476.961 429.464C475.953 430.136 474.729 430.472 473.289 430.472ZM473.745 428.456C474.721 428.456 475.577 428.24 476.313 427.808C477.065 427.376 477.657 426.784 478.089 426.032C478.521 425.28 478.737 424.424 478.737 423.464C478.737 422.44 478.401 421.64 477.729 421.064C477.073 420.472 476.145 420.176 474.945 420.176C473.969 420.176 473.105 420.392 472.353 420.824C471.617 421.24 471.033 421.824 470.601 422.576C470.169 423.328 469.953 424.184 469.953 425.144C469.953 426.184 470.289 427 470.961 427.592C471.633 428.168 472.561 428.456 473.745 428.456ZM484.555 435.8C483.947 435.8 483.347 435.696 482.755 435.488C482.163 435.296 481.699 435.024 481.363 434.672L482.563 432.968C482.835 433.24 483.155 433.448 483.523 433.592C483.875 433.752 484.275 433.832 484.723 433.832C485.251 433.832 485.723 433.688 486.139 433.4C486.571 433.128 487.011 432.64 487.459 431.936L488.659 430.088L488.923 429.824L496.195 418.28H498.523L489.499 432.392C488.939 433.256 488.411 433.936 487.915 434.432C487.419 434.928 486.899 435.28 486.355 435.488C485.827 435.696 485.227 435.8 484.555 435.8ZM488.227 431.408L485.035 418.28H487.339L490.051 429.608L488.227 431.408ZM514.319 431.192C512.623 431.192 511.175 430.896 509.975 430.304C508.791 429.712 507.879 428.888 507.239 427.832C506.615 426.76 506.303 425.52 506.303 424.112C506.303 422.72 506.543 421.416 507.023 420.2C507.503 418.968 508.191 417.888 509.087 416.96C509.999 416.032 511.079 415.312 512.327 414.8C513.591 414.272 515.015 414.008 516.599 414.008C517.991 414.008 519.223 414.232 520.295 414.68C521.367 415.128 522.191 415.776 522.767 416.624L521.039 418.112C520.543 417.472 519.911 416.984 519.143 416.648C518.375 416.312 517.471 416.144 516.431 416.144C515.231 416.144 514.151 416.352 513.191 416.768C512.247 417.168 511.439 417.736 510.767 418.472C510.095 419.192 509.583 420.024 509.231 420.968C508.879 421.912 508.703 422.912 508.703 423.968C508.703 424.976 508.919 425.864 509.351 426.632C509.799 427.384 510.447 427.976 511.295 428.408C512.159 428.84 513.223 429.056 514.487 429.056C515.511 429.056 516.447 428.888 517.295 428.552C518.159 428.216 518.919 427.72 519.575 427.064L520.967 428.648C520.199 429.496 519.239 430.136 518.087 430.568C516.935 430.984 515.679 431.192 514.319 431.192ZM529.155 431.144C527.939 431.144 526.883 430.92 525.987 430.472C525.107 430.008 524.419 429.368 523.923 428.552C523.427 427.72 523.179 426.752 523.179 425.648C523.179 424.208 523.499 422.928 524.139 421.808C524.779 420.672 525.659 419.784 526.779 419.144C527.915 418.488 529.203 418.16 530.643 418.16C531.843 418.16 532.891 418.384 533.787 418.832C534.683 419.28 535.371 419.912 535.851 420.728C536.347 421.544 536.595 422.512 536.595 423.632C536.595 425.072 536.275 426.36 535.635 427.496C534.995 428.616 534.115 429.504 532.995 430.16C531.891 430.816 530.611 431.144 529.155 431.144ZM529.299 429.128C530.259 429.128 531.115 428.896 531.867 428.432C532.619 427.968 533.203 427.336 533.619 426.536C534.051 425.72 534.267 424.792 534.267 423.752C534.267 422.632 533.939 421.76 533.283 421.136C532.627 420.496 531.691 420.176 530.475 420.176C529.531 420.176 528.683 420.408 527.931 420.872C527.179 421.32 526.587 421.952 526.155 422.768C525.723 423.568 525.507 424.496 525.507 425.552C525.507 426.656 525.835 427.528 526.491 428.168C527.147 428.808 528.083 429.128 529.299 429.128ZM548.062 418.16C549.182 418.16 550.118 418.384 550.87 418.832C551.622 419.28 552.142 419.936 552.43 420.8C552.734 421.648 552.766 422.672 552.526 423.872L551.11 431H548.806L550.222 423.872C550.462 422.72 550.35 421.824 549.886 421.184C549.422 420.544 548.59 420.224 547.39 420.224C546.158 420.224 545.134 420.56 544.318 421.232C543.502 421.888 542.958 422.904 542.686 424.28L541.342 431H539.038L541.558 418.28H543.766L543.046 421.928L542.614 420.944C543.222 419.984 543.99 419.28 544.918 418.832C545.862 418.384 546.91 418.16 548.062 418.16ZM559.982 431.144C558.91 431.144 557.894 431.008 556.934 430.736C555.99 430.448 555.262 430.096 554.75 429.68L555.782 427.856C556.278 428.24 556.918 428.552 557.702 428.792C558.502 429.032 559.334 429.152 560.198 429.152C561.302 429.152 562.134 428.984 562.694 428.648C563.254 428.312 563.534 427.856 563.534 427.28C563.534 426.864 563.366 426.552 563.03 426.344C562.694 426.12 562.254 425.952 561.71 425.84C561.182 425.712 560.614 425.592 560.006 425.48C559.398 425.352 558.83 425.176 558.302 424.952C557.774 424.728 557.334 424.408 556.982 423.992C556.646 423.56 556.478 422.992 556.478 422.288C556.478 421.44 556.718 420.712 557.198 420.104C557.678 419.48 558.35 419 559.214 418.664C560.078 418.328 561.086 418.16 562.238 418.16C563.07 418.16 563.886 418.264 564.686 418.472C565.502 418.664 566.166 418.944 566.678 419.312L565.766 421.136C565.238 420.768 564.646 420.512 563.99 420.368C563.334 420.208 562.678 420.128 562.022 420.128C560.95 420.128 560.142 420.312 559.598 420.68C559.054 421.032 558.782 421.48 558.782 422.024C558.782 422.44 558.95 422.768 559.286 423.008C559.622 423.232 560.054 423.408 560.582 423.536C561.126 423.664 561.694 423.792 562.286 423.92C562.894 424.032 563.462 424.2 563.99 424.424C564.534 424.632 564.974 424.944 565.31 425.36C565.646 425.76 565.814 426.312 565.814 427.016C565.814 427.896 565.566 428.648 565.07 429.272C564.59 429.88 563.91 430.344 563.03 430.664C562.15 430.984 561.134 431.144 559.982 431.144ZM573.997 431.144C572.909 431.144 571.989 430.92 571.237 430.472C570.501 430.024 569.981 429.376 569.677 428.528C569.373 427.664 569.341 426.624 569.581 425.408L570.997 418.28H573.301L571.885 425.432C571.661 426.568 571.773 427.464 572.221 428.12C572.685 428.76 573.501 429.08 574.669 429.08C575.869 429.08 576.877 428.744 577.693 428.072C578.509 427.4 579.053 426.384 579.325 425.024L580.669 418.28H582.973L580.453 431H578.245L578.965 427.352L579.373 428.336C578.781 429.296 578.013 430.008 577.069 430.472C576.141 430.92 575.117 431.144 573.997 431.144ZM585.439 431L588.991 413.192H591.295L587.743 431H585.439ZM597.11 431.144C596.342 431.144 595.678 430.976 595.118 430.64C594.574 430.304 594.182 429.824 593.942 429.2C593.718 428.576 593.686 427.84 593.846 426.992L596.15 415.496H598.454L596.15 426.944C596.038 427.632 596.102 428.184 596.342 428.6C596.598 429 597.07 429.2 597.758 429.2C598.078 429.2 598.398 429.152 598.718 429.056C599.038 428.944 599.326 428.792 599.582 428.6L600.062 430.352C599.63 430.656 599.15 430.864 598.622 430.976C598.11 431.088 597.606 431.144 597.11 431.144ZM593.054 420.176L593.414 418.28H601.55L601.166 420.176H593.054ZM603.28 431L605.8 418.28H608.104L605.584 431H603.28ZM607.624 415.832C607.192 415.832 606.84 415.696 606.568 415.424C606.312 415.152 606.184 414.824 606.184 414.44C606.184 413.992 606.336 413.616 606.64 413.312C606.944 412.992 607.344 412.832 607.84 412.832C608.256 412.832 608.6 412.968 608.872 413.24C609.16 413.496 609.304 413.808 609.304 414.176C609.304 414.672 609.152 415.072 608.848 415.376C608.544 415.68 608.136 415.832 607.624 415.832ZM619.607 418.16C620.727 418.16 621.663 418.384 622.415 418.832C623.167 419.28 623.687 419.936 623.975 420.8C624.279 421.648 624.311 422.672 624.071 423.872L622.655 431H620.351L621.767 423.872C622.007 422.72 621.895 421.824 621.431 421.184C620.967 420.544 620.135 420.224 618.935 420.224C617.703 420.224 616.679 420.56 615.863 421.232C615.047 421.888 614.503 422.904 614.231 424.28L612.887 431H610.583L613.103 418.28H615.311L614.591 421.928L614.159 420.944C614.767 419.984 615.535 419.28 616.463 418.832C617.407 418.384 618.455 418.16 619.607 418.16ZM632.415 435.8C631.215 435.8 630.119 435.64 629.127 435.32C628.135 435.016 627.295 434.576 626.607 434L627.879 432.224C628.375 432.688 629.031 433.056 629.847 433.328C630.679 433.616 631.591 433.76 632.583 433.76C634.087 433.76 635.239 433.416 636.039 432.728C636.839 432.056 637.375 431.024 637.647 429.632L638.247 426.68L638.967 424.304L639.327 421.76L640.023 418.28H642.207L640.023 429.272C639.559 431.576 638.703 433.24 637.455 434.264C636.207 435.288 634.527 435.8 632.415 435.8ZM633.231 430.472C632.127 430.472 631.143 430.264 630.279 429.848C629.431 429.432 628.767 428.84 628.287 428.072C627.807 427.288 627.567 426.36 627.567 425.288C627.567 424.264 627.743 423.328 628.095 422.48C628.463 421.616 628.967 420.864 629.607 420.224C630.247 419.568 631.007 419.064 631.887 418.712C632.783 418.344 633.759 418.16 634.815 418.16C635.775 418.16 636.647 418.328 637.431 418.664C638.231 419 638.863 419.52 639.327 420.224C639.807 420.912 640.047 421.808 640.047 422.912C640.063 424.32 639.799 425.6 639.255 426.752C638.711 427.888 637.927 428.792 636.903 429.464C635.895 430.136 634.671 430.472 633.231 430.472ZM633.687 428.456C634.663 428.456 635.519 428.24 636.255 427.808C637.007 427.376 637.599 426.784 638.031 426.032C638.463 425.28 638.679 424.424 638.679 423.464C638.679 422.44 638.343 421.64 637.671 421.064C637.015 420.472 636.087 420.176 634.887 420.176C633.911 420.176 633.047 420.392 632.295 420.824C631.559 421.24 630.975 421.824 630.543 422.576C630.111 423.328 629.895 424.184 629.895 425.144C629.895 426.184 630.231 427 630.903 427.592C631.575 428.168 632.503 428.456 633.687 428.456ZM656.87 431.192C655.766 431.192 654.806 431.032 653.99 430.712C653.174 430.392 652.542 429.936 652.094 429.344C651.646 428.736 651.422 428.032 651.422 427.232C651.422 426.368 651.646 425.592 652.094 424.904C652.542 424.2 653.222 423.544 654.134 422.936C655.062 422.312 656.206 421.704 657.566 421.112C658.766 420.584 659.694 420.128 660.35 419.744C661.006 419.344 661.462 418.96 661.718 418.592C661.99 418.224 662.126 417.808 662.126 417.344C662.126 416.896 661.95 416.52 661.598 416.216C661.246 415.896 660.75 415.736 660.11 415.736C659.278 415.736 658.606 415.96 658.094 416.408C657.598 416.84 657.35 417.432 657.35 418.184C657.35 418.568 657.454 418.984 657.662 419.432C657.87 419.864 658.206 420.36 658.67 420.92L665.846 429.752L664.31 431.264L656.702 421.88C656.222 421.288 655.854 420.712 655.598 420.152C655.358 419.592 655.238 419.008 655.238 418.4C655.238 417.504 655.446 416.736 655.862 416.096C656.294 415.44 656.886 414.936 657.638 414.584C658.39 414.232 659.238 414.056 660.182 414.056C660.95 414.056 661.63 414.176 662.222 414.416C662.814 414.656 663.27 415.008 663.59 415.472C663.926 415.936 664.094 416.496 664.094 417.152C664.094 417.952 663.878 418.656 663.446 419.264C663.03 419.872 662.398 420.44 661.55 420.968C660.702 421.496 659.63 422.04 658.334 422.6C657.23 423.112 656.334 423.584 655.646 424.016C654.974 424.448 654.486 424.888 654.182 425.336C653.878 425.784 653.726 426.288 653.726 426.848C653.726 427.552 654.006 428.136 654.566 428.6C655.142 429.048 655.958 429.272 657.014 429.272C658.054 429.272 659.046 429.04 659.99 428.576C660.95 428.112 661.814 427.416 662.582 426.488C663.366 425.56 664.022 424.408 664.55 423.032L666.35 423.632C665.71 425.296 664.91 426.696 663.95 427.832C662.99 428.952 661.91 429.792 660.71 430.352C659.51 430.912 658.23 431.192 656.87 431.192ZM680.249 421.448H688.889L688.481 423.488H679.841L680.249 421.448ZM678.953 428.912H688.769L688.361 431H676.145L679.505 414.2H691.361L690.953 416.288H681.473L678.953 428.912ZM697.939 431.144C696.867 431.144 695.907 430.928 695.059 430.496C694.211 430.048 693.539 429.416 693.043 428.6C692.563 427.784 692.323 426.8 692.323 425.648C692.323 424.56 692.499 423.56 692.851 422.648C693.219 421.736 693.723 420.944 694.363 420.272C695.019 419.6 695.787 419.08 696.667 418.712C697.547 418.344 698.499 418.16 699.523 418.16C700.627 418.16 701.563 418.352 702.331 418.736C703.099 419.12 703.691 419.688 704.107 420.44C704.523 421.176 704.731 422.08 704.731 423.152C704.731 424.336 704.579 425.416 704.275 426.392C703.971 427.368 703.515 428.216 702.907 428.936C702.315 429.64 701.603 430.184 700.771 430.568C699.939 430.952 698.995 431.144 697.939 431.144ZM698.443 429.128C699.403 429.128 700.259 428.896 701.011 428.432C701.763 427.968 702.347 427.336 702.763 426.536C703.195 425.72 703.411 424.792 703.411 423.752C703.411 422.632 703.083 421.76 702.427 421.136C701.771 420.496 700.835 420.176 699.619 420.176C698.675 420.176 697.827 420.408 697.075 420.872C696.323 421.32 695.731 421.952 695.299 422.768C694.867 423.568 694.651 424.496 694.651 425.552C694.651 426.656 694.979 427.528 695.635 428.168C696.291 428.808 697.227 429.128 698.443 429.128ZM702.115 431L702.787 427.712L703.531 424.76L703.867 421.736L705.571 413.192H707.875L704.323 431H702.115ZM714.706 431.144C713.618 431.144 712.698 430.92 711.946 430.472C711.21 430.024 710.69 429.376 710.386 428.528C710.082 427.664 710.05 426.624 710.29 425.408L711.706 418.28H714.01L712.594 425.432C712.37 426.568 712.482 427.464 712.93 428.12C713.394 428.76 714.21 429.08 715.378 429.08C716.578 429.08 717.586 428.744 718.402 428.072C719.218 427.4 719.762 426.384 720.034 425.024L721.378 418.28H723.682L721.162 431H718.954L719.674 427.352L720.082 428.336C719.49 429.296 718.722 430.008 717.778 430.472C716.85 430.92 715.826 431.144 714.706 431.144ZM732.173 431.144C730.941 431.144 729.869 430.92 728.957 430.472C728.061 430.008 727.365 429.368 726.869 428.552C726.373 427.72 726.125 426.752 726.125 425.648C726.125 424.208 726.445 422.928 727.085 421.808C727.725 420.672 728.613 419.784 729.749 419.144C730.885 418.488 732.173 418.16 733.613 418.16C734.845 418.16 735.901 418.392 736.781 418.856C737.661 419.304 738.349 419.992 738.845 420.92L736.901 422C736.581 421.376 736.125 420.92 735.533 420.632C734.957 420.328 734.261 420.176 733.445 420.176C732.485 420.176 731.629 420.408 730.877 420.872C730.125 421.32 729.533 421.952 729.101 422.768C728.669 423.568 728.453 424.496 728.453 425.552C728.453 426.656 728.781 427.528 729.437 428.168C730.109 428.808 731.053 429.128 732.269 429.128C733.021 429.128 733.725 428.976 734.381 428.672C735.053 428.368 735.613 427.92 736.061 427.328L737.741 428.528C737.165 429.344 736.381 429.984 735.389 430.448C734.397 430.912 733.325 431.144 732.173 431.144ZM745.864 431.144C744.792 431.144 743.832 430.928 742.984 430.496C742.136 430.048 741.464 429.416 740.968 428.6C740.488 427.784 740.248 426.8 740.248 425.648C740.248 424.56 740.424 423.56 740.776 422.648C741.144 421.736 741.648 420.944 742.288 420.272C742.944 419.6 743.712 419.08 744.592 418.712C745.472 418.344 746.424 418.16 747.448 418.16C748.552 418.16 749.488 418.352 750.256 418.736C751.024 419.12 751.616 419.688 752.032 420.44C752.448 421.176 752.656 422.08 752.656 423.152C752.656 424.72 752.384 426.112 751.84 427.328C751.296 428.528 750.512 429.464 749.488 430.136C748.48 430.808 747.272 431.144 745.864 431.144ZM746.368 429.128C747.328 429.128 748.184 428.896 748.936 428.432C749.688 427.968 750.272 427.336 750.688 426.536C751.12 425.72 751.336 424.792 751.336 423.752C751.336 422.632 751.008 421.76 750.352 421.136C749.696 420.496 748.76 420.176 747.544 420.176C746.6 420.176 745.752 420.408 745 420.872C744.248 421.32 743.656 421.952 743.224 422.768C742.792 423.568 742.576 424.496 742.576 425.552C742.576 426.656 742.904 427.528 743.56 428.168C744.216 428.808 745.152 429.128 746.368 429.128ZM750.04 431L750.712 427.712L751.48 424.76L751.792 421.736L752.464 418.28H754.768L752.248 431H750.04ZM761.599 431.144C760.831 431.144 760.167 430.976 759.607 430.64C759.063 430.304 758.671 429.824 758.431 429.2C758.207 428.576 758.175 427.84 758.335 426.992L760.639 415.496H762.943L760.639 426.944C760.527 427.632 760.591 428.184 760.831 428.6C761.087 429 761.559 429.2 762.247 429.2C762.567 429.2 762.887 429.152 763.207 429.056C763.527 428.944 763.815 428.792 764.071 428.6L764.551 430.352C764.119 430.656 763.639 430.864 763.111 430.976C762.599 431.088 762.095 431.144 761.599 431.144ZM757.543 420.176L757.903 418.28H766.039L765.655 420.176H757.543ZM767.769 431L770.289 418.28H772.593L770.073 431H767.769ZM772.113 415.832C771.681 415.832 771.329 415.696 771.057 415.424C770.801 415.152 770.673 414.824 770.673 414.44C770.673 413.992 770.825 413.616 771.129 413.312C771.433 412.992 771.833 412.832 772.329 412.832C772.745 412.832 773.089 412.968 773.361 413.24C773.649 413.496 773.793 413.808 773.793 414.176C773.793 414.672 773.641 415.072 773.337 415.376C773.033 415.68 772.625 415.832 772.113 415.832ZM781.024 431.144C779.808 431.144 778.752 430.92 777.856 430.472C776.976 430.008 776.288 429.368 775.792 428.552C775.296 427.72 775.048 426.752 775.048 425.648C775.048 424.208 775.368 422.928 776.008 421.808C776.648 420.672 777.528 419.784 778.648 419.144C779.784 418.488 781.072 418.16 782.512 418.16C783.712 418.16 784.76 418.384 785.656 418.832C786.552 419.28 787.24 419.912 787.72 420.728C788.216 421.544 788.464 422.512 788.464 423.632C788.464 425.072 788.144 426.36 787.504 427.496C786.864 428.616 785.984 429.504 784.864 430.16C783.76 430.816 782.48 431.144 781.024 431.144ZM781.168 429.128C782.128 429.128 782.984 428.896 783.736 428.432C784.488 427.968 785.072 427.336 785.488 426.536C785.92 425.72 786.136 424.792 786.136 423.752C786.136 422.632 785.808 421.76 785.152 421.136C784.496 420.496 783.56 420.176 782.344 420.176C781.4 420.176 780.552 420.408 779.8 420.872C779.048 421.32 778.456 421.952 778.024 422.768C777.592 423.568 777.376 424.496 777.376 425.552C777.376 426.656 777.704 427.528 778.36 428.168C779.016 428.808 779.952 429.128 781.168 429.128ZM799.93 418.16C801.05 418.16 801.986 418.384 802.738 418.832C803.49 419.28 804.01 419.936 804.298 420.8C804.602 421.648 804.634 422.672 804.394 423.872L802.978 431H800.674L802.09 423.872C802.33 422.72 802.218 421.824 801.754 421.184C801.29 420.544 800.458 420.224 799.258 420.224C798.026 420.224 797.002 420.56 796.186 421.232C795.37 421.888 794.826 422.904 794.554 424.28L793.21 431H790.906L793.426 418.28H795.634L794.914 421.928L794.482 420.944C795.09 419.984 795.858 419.28 796.786 418.832C797.73 418.384 798.778 418.16 799.93 418.16ZM813.434 431.144C812.362 431.144 811.402 430.928 810.554 430.496C809.706 430.048 809.034 429.416 808.538 428.6C808.058 427.784 807.818 426.8 807.818 425.648C807.818 424.56 807.994 423.56 808.346 422.648C808.714 421.736 809.218 420.944 809.858 420.272C810.514 419.6 811.282 419.08 812.162 418.712C813.042 418.344 813.994 418.16 815.018 418.16C816.122 418.16 817.058 418.352 817.826 418.736C818.594 419.12 819.186 419.688 819.602 420.44C820.018 421.176 820.226 422.08 820.226 423.152C820.226 424.72 819.954 426.112 819.41 427.328C818.866 428.528 818.082 429.464 817.058 430.136C816.05 430.808 814.842 431.144 813.434 431.144ZM813.938 429.128C814.898 429.128 815.754 428.896 816.506 428.432C817.258 427.968 817.842 427.336 818.258 426.536C818.69 425.72 818.906 424.792 818.906 423.752C818.906 422.632 818.578 421.76 817.922 421.136C817.266 420.496 816.33 420.176 815.114 420.176C814.17 420.176 813.322 420.408 812.57 420.872C811.818 421.32 811.226 421.952 810.794 422.768C810.362 423.568 810.146 424.496 810.146 425.552C810.146 426.656 810.474 427.528 811.13 428.168C811.786 428.808 812.722 429.128 813.938 429.128ZM817.61 431L818.282 427.712L819.05 424.76L819.362 421.736L820.034 418.28H822.338L819.818 431H817.61ZM824.802 431L828.354 413.192H830.658L827.106 431H824.802ZM844.646 431.192C843.798 431.192 842.966 431.104 842.15 430.928C841.35 430.736 840.614 430.488 839.942 430.184C839.286 429.88 838.758 429.536 838.358 429.152L839.414 427.232C839.846 427.616 840.35 427.952 840.926 428.24C841.518 428.528 842.142 428.752 842.798 428.912C843.47 429.072 844.158 429.152 844.862 429.152C845.758 429.152 846.55 429.04 847.238 428.816C847.926 428.592 848.454 428.272 848.822 427.856C849.206 427.424 849.398 426.904 849.398 426.296C849.398 425.8 849.238 425.392 848.918 425.072C848.598 424.752 848.182 424.496 847.67 424.304C847.174 424.096 846.614 423.912 845.99 423.752C845.382 423.576 844.766 423.384 844.142 423.176C843.534 422.952 842.974 422.68 842.462 422.36C841.966 422.04 841.558 421.632 841.238 421.136C840.934 420.624 840.782 419.984 840.782 419.216C840.782 418.144 841.078 417.224 841.67 416.456C842.262 415.672 843.078 415.072 844.118 414.656C845.174 414.224 846.39 414.008 847.766 414.008C848.806 414.008 849.798 414.128 850.742 414.368C851.686 414.608 852.494 414.96 853.166 415.424L852.206 417.392C851.582 416.944 850.878 416.608 850.094 416.384C849.31 416.16 848.494 416.048 847.646 416.048C846.734 416.048 845.942 416.168 845.27 416.408C844.598 416.648 844.078 416.992 843.71 417.44C843.342 417.872 843.15 418.384 843.134 418.976C843.134 419.488 843.286 419.904 843.59 420.224C843.894 420.544 844.302 420.808 844.814 421.016C845.326 421.224 845.886 421.424 846.494 421.616C847.118 421.792 847.734 421.984 848.342 422.192C848.95 422.384 849.51 422.64 850.022 422.96C850.55 423.264 850.966 423.656 851.27 424.136C851.59 424.616 851.75 425.224 851.75 425.96C851.75 427.032 851.446 427.968 850.838 428.768C850.246 429.552 849.414 430.152 848.342 430.568C847.286 430.984 846.054 431.192 844.646 431.192ZM860.056 431.144C858.968 431.144 858.048 430.92 857.296 430.472C856.56 430.024 856.04 429.376 855.736 428.528C855.432 427.664 855.4 426.624 855.64 425.408L857.056 418.28H859.36L857.944 425.432C857.72 426.568 857.832 427.464 858.28 428.12C858.744 428.76 859.56 429.08 860.728 429.08C861.928 429.08 862.936 428.744 863.752 428.072C864.568 427.4 865.112 426.384 865.384 425.024L866.728 418.28H869.032L866.512 431H864.304L865.024 427.352L865.432 428.336C864.84 429.296 864.072 430.008 863.128 430.472C862.2 430.92 861.176 431.144 860.056 431.144ZM878.819 431.144C877.731 431.144 876.795 430.952 876.011 430.568C875.243 430.168 874.651 429.6 874.235 428.864C873.819 428.112 873.611 427.208 873.611 426.152C873.611 424.552 873.883 423.16 874.427 421.976C874.971 420.776 875.747 419.84 876.755 419.168C877.779 418.496 878.995 418.16 880.403 418.16C881.491 418.16 882.451 418.376 883.283 418.808C884.131 419.24 884.795 419.872 885.275 420.704C885.771 421.52 886.019 422.496 886.019 423.632C886.019 424.72 885.835 425.72 885.467 426.632C885.115 427.544 884.611 428.336 883.955 429.008C883.315 429.68 882.555 430.208 881.675 430.592C880.795 430.96 879.843 431.144 878.819 431.144ZM870.562 435.656L874.019 418.28H876.227L875.555 421.568L874.811 424.52L874.475 427.544L872.867 435.656H870.562ZM878.723 429.128C879.683 429.128 880.531 428.896 881.267 428.432C882.019 427.968 882.611 427.336 883.043 426.536C883.475 425.72 883.691 424.792 883.691 423.752C883.691 422.632 883.363 421.76 882.707 421.136C882.051 420.496 881.115 420.176 879.899 420.176C878.955 420.176 878.099 420.408 877.331 420.872C876.579 421.32 875.987 421.952 875.555 422.768C875.139 423.568 874.931 424.496 874.931 425.552C874.931 426.656 875.259 427.528 875.915 428.168C876.571 428.808 877.507 429.128 878.723 429.128ZM895.778 431.144C894.69 431.144 893.754 430.952 892.97 430.568C892.202 430.168 891.61 429.6 891.194 428.864C890.778 428.112 890.57 427.208 890.57 426.152C890.57 424.552 890.842 423.16 891.386 421.976C891.93 420.776 892.706 419.84 893.714 419.168C894.738 418.496 895.954 418.16 897.362 418.16C898.45 418.16 899.41 418.376 900.242 418.808C901.09 419.24 901.754 419.872 902.234 420.704C902.73 421.52 902.978 422.496 902.978 423.632C902.978 424.72 902.794 425.72 902.426 426.632C902.074 427.544 901.57 428.336 900.914 429.008C900.274 429.68 899.514 430.208 898.634 430.592C897.754 430.96 896.802 431.144 895.778 431.144ZM887.522 435.656L890.978 418.28H893.186L892.514 421.568L891.77 424.52L891.434 427.544L889.826 435.656H887.522ZM895.682 429.128C896.642 429.128 897.49 428.896 898.226 428.432C898.978 427.968 899.57 427.336 900.002 426.536C900.434 425.72 900.65 424.792 900.65 423.752C900.65 422.632 900.322 421.76 899.666 421.136C899.01 420.496 898.074 420.176 896.858 420.176C895.914 420.176 895.058 420.408 894.29 420.872C893.538 421.32 892.946 421.952 892.514 422.768C892.098 423.568 891.89 424.496 891.89 425.552C891.89 426.656 892.218 427.528 892.874 428.168C893.53 428.808 894.466 429.128 895.682 429.128ZM911.369 431.144C910.153 431.144 909.097 430.92 908.201 430.472C907.321 430.008 906.633 429.368 906.137 428.552C905.641 427.72 905.393 426.752 905.393 425.648C905.393 424.208 905.713 422.928 906.353 421.808C906.993 420.672 907.873 419.784 908.993 419.144C910.129 418.488 911.417 418.16 912.857 418.16C914.057 418.16 915.105 418.384 916.001 418.832C916.897 419.28 917.585 419.912 918.065 420.728C918.561 421.544 918.809 422.512 918.809 423.632C918.809 425.072 918.489 426.36 917.849 427.496C917.209 428.616 916.329 429.504 915.209 430.16C914.105 430.816 912.825 431.144 911.369 431.144ZM911.513 429.128C912.473 429.128 913.329 428.896 914.081 428.432C914.833 427.968 915.417 427.336 915.833 426.536C916.265 425.72 916.481 424.792 916.481 423.752C916.481 422.632 916.153 421.76 915.497 421.136C914.841 420.496 913.905 420.176 912.689 420.176C911.745 420.176 910.897 420.408 910.145 420.872C909.393 421.32 908.801 421.952 908.369 422.768C907.937 423.568 907.721 424.496 907.721 425.552C907.721 426.656 908.049 427.528 908.705 428.168C909.361 428.808 910.297 429.128 911.513 429.128ZM921.252 431L923.772 418.28H925.98L925.26 421.976L925.02 421.064C925.612 419.992 926.364 419.24 927.276 418.808C928.188 418.376 929.316 418.16 930.66 418.16L930.228 420.392C930.132 420.376 930.036 420.368 929.94 420.368C929.844 420.368 929.74 420.368 929.628 420.368C928.364 420.368 927.316 420.712 926.484 421.4C925.668 422.088 925.116 423.168 924.828 424.64L923.556 431H921.252ZM936.415 431.144C935.647 431.144 934.983 430.976 934.423 430.64C933.879 430.304 933.487 429.824 933.247 429.2C933.023 428.576 932.991 427.84 933.151 426.992L935.455 415.496H937.759L935.455 426.944C935.343 427.632 935.407 428.184 935.647 428.6C935.903 429 936.375 429.2 937.063 429.2C937.383 429.2 937.703 429.152 938.023 429.056C938.343 428.944 938.631 428.792 938.887 428.6L939.367 430.352C938.935 430.656 938.455 430.864 937.927 430.976C937.415 431.088 936.911 431.144 936.415 431.144ZM932.359 420.176L932.719 418.28H940.855L940.471 420.176H932.359ZM955.126 431.192C954.278 431.192 953.446 431.104 952.63 430.928C951.83 430.736 951.094 430.488 950.422 430.184C949.766 429.88 949.238 429.536 948.838 429.152L949.894 427.232C950.326 427.616 950.83 427.952 951.406 428.24C951.998 428.528 952.622 428.752 953.278 428.912C953.95 429.072 954.638 429.152 955.342 429.152C956.238 429.152 957.03 429.04 957.718 428.816C958.406 428.592 958.934 428.272 959.302 427.856C959.686 427.424 959.878 426.904 959.878 426.296C959.878 425.8 959.718 425.392 959.398 425.072C959.078 424.752 958.662 424.496 958.15 424.304C957.654 424.096 957.094 423.912 956.47 423.752C955.862 423.576 955.246 423.384 954.622 423.176C954.014 422.952 953.454 422.68 952.942 422.36C952.446 422.04 952.038 421.632 951.718 421.136C951.414 420.624 951.262 419.984 951.262 419.216C951.262 418.144 951.558 417.224 952.15 416.456C952.742 415.672 953.558 415.072 954.598 414.656C955.654 414.224 956.87 414.008 958.246 414.008C959.286 414.008 960.278 414.128 961.222 414.368C962.166 414.608 962.974 414.96 963.646 415.424L962.686 417.392C962.062 416.944 961.358 416.608 960.574 416.384C959.79 416.16 958.974 416.048 958.126 416.048C957.214 416.048 956.422 416.168 955.75 416.408C955.078 416.648 954.558 416.992 954.19 417.44C953.822 417.872 953.63 418.384 953.614 418.976C953.614 419.488 953.766 419.904 954.07 420.224C954.374 420.544 954.782 420.808 955.294 421.016C955.806 421.224 956.366 421.424 956.974 421.616C957.598 421.792 958.214 421.984 958.822 422.192C959.43 422.384 959.99 422.64 960.502 422.96C961.03 423.264 961.446 423.656 961.75 424.136C962.07 424.616 962.23 425.224 962.23 425.96C962.23 427.032 961.926 427.968 961.318 428.768C960.726 429.552 959.894 430.152 958.822 430.568C957.766 430.984 956.534 431.192 955.126 431.192ZM971.208 431.144C969.96 431.144 968.88 430.92 967.968 430.472C967.056 430.008 966.352 429.368 965.856 428.552C965.36 427.72 965.112 426.744 965.112 425.624C965.112 424.184 965.424 422.904 966.048 421.784C966.672 420.664 967.52 419.784 968.592 419.144C969.68 418.488 970.912 418.16 972.288 418.16C973.44 418.16 974.44 418.384 975.288 418.832C976.136 419.264 976.792 419.888 977.256 420.704C977.736 421.52 977.976 422.504 977.976 423.656C977.976 423.944 977.96 424.24 977.928 424.544C977.896 424.832 977.856 425.104 977.808 425.36H966.792L967.08 423.68H976.704L975.768 424.256C975.912 423.36 975.848 422.608 975.576 422C975.304 421.376 974.872 420.904 974.28 420.584C973.704 420.248 973.008 420.08 972.192 420.08C971.232 420.08 970.384 420.312 969.648 420.776C968.928 421.224 968.368 421.856 967.968 422.672C967.568 423.472 967.368 424.416 967.368 425.504C967.368 426.656 967.696 427.552 968.352 428.192C969.024 428.816 970.04 429.128 971.4 429.128C972.2 429.128 972.944 429 973.632 428.744C974.32 428.472 974.888 428.112 975.336 427.664L976.32 429.32C975.712 429.912 974.952 430.368 974.04 430.688C973.128 430.992 972.184 431.144 971.208 431.144ZM980.408 431L982.928 418.28H985.136L984.416 421.976L984.176 421.064C984.768 419.992 985.52 419.24 986.432 418.808C987.344 418.376 988.472 418.16 989.816 418.16L989.384 420.392C989.288 420.376 989.192 420.368 989.096 420.368C989 420.368 988.896 420.368 988.784 420.368C987.52 420.368 986.472 420.712 985.64 421.4C984.824 422.088 984.272 423.168 983.984 424.64L982.712 431H980.408ZM994.539 431L991.491 418.28H993.795L996.483 429.8H995.331L1002.65 418.28H1004.98L996.891 431H994.539ZM1005.21 431L1007.73 418.28H1010.03L1007.51 431H1005.21ZM1009.55 415.832C1009.12 415.832 1008.77 415.696 1008.5 415.424C1008.24 415.152 1008.11 414.824 1008.11 414.44C1008.11 413.992 1008.27 413.616 1008.57 413.312C1008.87 412.992 1009.27 412.832 1009.77 412.832C1010.19 412.832 1010.53 412.968 1010.8 413.24C1011.09 413.496 1011.23 413.808 1011.23 414.176C1011.23 414.672 1011.08 415.072 1010.78 415.376C1010.47 415.68 1010.07 415.832 1009.55 415.832ZM1018.54 431.144C1017.3 431.144 1016.23 430.92 1015.32 430.472C1014.42 430.008 1013.73 429.368 1013.23 428.552C1012.74 427.72 1012.49 426.752 1012.49 425.648C1012.49 424.208 1012.81 422.928 1013.45 421.808C1014.09 420.672 1014.98 419.784 1016.11 419.144C1017.25 418.488 1018.54 418.16 1019.98 418.16C1021.21 418.16 1022.26 418.392 1023.14 418.856C1024.02 419.304 1024.71 419.992 1025.21 420.92L1023.26 422C1022.94 421.376 1022.49 420.92 1021.9 420.632C1021.32 420.328 1020.62 420.176 1019.81 420.176C1018.85 420.176 1017.99 420.408 1017.24 420.872C1016.49 421.32 1015.9 421.952 1015.46 422.768C1015.03 423.568 1014.82 424.496 1014.82 425.552C1014.82 426.656 1015.14 427.528 1015.8 428.168C1016.47 428.808 1017.42 429.128 1018.63 429.128C1019.38 429.128 1020.09 428.976 1020.74 428.672C1021.42 428.368 1021.98 427.92 1022.42 427.328L1024.1 428.528C1023.53 429.344 1022.74 429.984 1021.75 430.448C1020.76 430.912 1019.69 431.144 1018.54 431.144ZM1032.71 431.144C1031.46 431.144 1030.38 430.92 1029.47 430.472C1028.56 430.008 1027.85 429.368 1027.36 428.552C1026.86 427.72 1026.61 426.744 1026.61 425.624C1026.61 424.184 1026.92 422.904 1027.55 421.784C1028.17 420.664 1029.02 419.784 1030.09 419.144C1031.18 418.488 1032.41 418.16 1033.79 418.16C1034.94 418.16 1035.94 418.384 1036.79 418.832C1037.64 419.264 1038.29 419.888 1038.76 420.704C1039.24 421.52 1039.48 422.504 1039.48 423.656C1039.48 423.944 1039.46 424.24 1039.43 424.544C1039.4 424.832 1039.36 425.104 1039.31 425.36H1028.29L1028.58 423.68H1038.2L1037.27 424.256C1037.41 423.36 1037.35 422.608 1037.08 422C1036.8 421.376 1036.37 420.904 1035.78 420.584C1035.2 420.248 1034.51 420.08 1033.69 420.08C1032.73 420.08 1031.88 420.312 1031.15 420.776C1030.43 421.224 1029.87 421.856 1029.47 422.672C1029.07 423.472 1028.87 424.416 1028.87 425.504C1028.87 426.656 1029.2 427.552 1029.85 428.192C1030.52 428.816 1031.54 429.128 1032.9 429.128C1033.7 429.128 1034.44 429 1035.13 428.744C1035.82 428.472 1036.39 428.112 1036.84 427.664L1037.82 429.32C1037.21 429.912 1036.45 430.368 1035.54 430.688C1034.63 430.992 1033.68 431.144 1032.71 431.144ZM1045.92 431.144C1044.84 431.144 1043.83 431.008 1042.87 430.736C1041.92 430.448 1041.2 430.096 1040.68 429.68L1041.72 427.856C1042.21 428.24 1042.85 428.552 1043.64 428.792C1044.44 429.032 1045.27 429.152 1046.13 429.152C1047.24 429.152 1048.07 428.984 1048.63 428.648C1049.19 428.312 1049.47 427.856 1049.47 427.28C1049.47 426.864 1049.3 426.552 1048.96 426.344C1048.63 426.12 1048.19 425.952 1047.64 425.84C1047.12 425.712 1046.55 425.592 1045.94 425.48C1045.33 425.352 1044.76 425.176 1044.24 424.952C1043.71 424.728 1043.27 424.408 1042.92 423.992C1042.58 423.56 1042.41 422.992 1042.41 422.288C1042.41 421.44 1042.65 420.712 1043.13 420.104C1043.61 419.48 1044.28 419 1045.15 418.664C1046.01 418.328 1047.02 418.16 1048.17 418.16C1049 418.16 1049.82 418.264 1050.62 418.472C1051.44 418.664 1052.1 418.944 1052.61 419.312L1051.7 421.136C1051.17 420.768 1050.58 420.512 1049.92 420.368C1049.27 420.208 1048.61 420.128 1047.96 420.128C1046.88 420.128 1046.08 420.312 1045.53 420.68C1044.99 421.032 1044.72 421.48 1044.72 422.024C1044.72 422.44 1044.88 422.768 1045.22 423.008C1045.56 423.232 1045.99 423.408 1046.52 423.536C1047.06 423.664 1047.63 423.792 1048.22 423.92C1048.83 424.032 1049.4 424.2 1049.92 424.424C1050.47 424.632 1050.91 424.944 1051.24 425.36C1051.58 425.76 1051.75 426.312 1051.75 427.016C1051.75 427.896 1051.5 428.648 1051 429.272C1050.52 429.88 1049.84 430.344 1048.96 430.664C1048.08 430.984 1047.07 431.144 1045.92 431.144Z" fill="#3C3C3C"/>
<path d="M340.064 132C337.326 133.298 336.554 132.772 333.689 131.891C332.824 131.632 331.96 131.373 331.069 131.106C330.142 130.824 329.216 130.541 328.261 130.25C311.45 125.295 295.424 122.768 277.817 123C278.355 123.599 278.894 124.199 279.449 124.816C292.198 139.879 300.588 157.903 307.358 176C312.046 176 315.824 174.94 320.216 173.562C321.044 173.304 321.873 173.045 322.726 172.779C330.617 170.193 337.781 166.626 345.043 162.758C348.505 161 348.505 161 350.615 161C347.442 169.312 333.685 174.139 325.736 177.745C322.426 179.215 319.106 180.665 315.773 182.09C313.65 183.017 311.559 184.009 309.468 185L313.688 200C337.585 192.052 358.78 179.923 374.881 161C375.936 164 375.936 164 374.757 166.496C364.605 182.597 352.66 196.574 336.899 208C335.589 208.982 335.589 208.982 334.253 209.984C301.286 233.874 258.795 243.251 217.927 243.13C215.751 243.125 213.576 243.13 211.4 243.137C209.991 243.136 208.583 243.135 207.174 243.133C205.923 243.132 204.672 243.13 203.383 243.129C199.743 243 199.743 243 192.358 242V262C228 268 264.911 253.741 298.093 239.082C301.056 237.781 302.988 237 306.303 237C296.88 258.124 255.062 275.057 234.481 283.184C223.156 287.41 209.921 292 197.633 292L198.688 301L182.862 302L180.752 294C179.882 294.035 179.012 294.07 178.115 294.105C161.462 294.475 143.849 292.339 130.77 281.75C121.814 273.534 115.895 265 116.011 252.902C116.012 250.923 115.985 248.955 116.011 246.975C116.036 244.95 116.018 243.001 116.011 240.975C116.011 229.687 116.005 222.976 116.5 222.5C119.5 224.5 121.5 227 123.582 229.687C133.5 240.975 142.456 249.688 157.541 255C165.341 257.618 165.454 258 173.367 261V240L163.872 235.5C150.156 227 136.634 222.166 129.776 208.164C126.007 199.077 126.343 192.02 130.11 183C134.075 175.255 139.675 169.16 145.936 163L148.606 160.312C155.948 153.109 163.863 146.985 172.312 141C172.92 140.563 173.529 140.125 174.155 139.675C219.34 107.294 291.294 102.833 340.064 132Z" fill="#025795"/>
<path d="M461.395 95C461.639 111.189 461.44 127.275 460.405 143.438C460.359 144.168 460.314 144.898 460.266 145.65C459.83 152.476 459.319 159.233 458.229 166C453.937 163.063 451.311 160.031 448.47 155.812C446.21 152.228 446.21 152.228 443.459 149C443.016 149.766 443.016 149.766 442.564 150.547C426.36 178.401 407.407 204.908 384.731 228.418C383.404 229.808 382.083 231.204 380.8 232.63C375.297 238.73 369.389 244.426 363.415 250.108C361.648 251.792 359.893 253.487 358.138 255.182C350.162 262.817 341.769 269.588 332.679 276C331.662 276.721 330.646 277.441 329.598 278.183C284.395 309.731 228.614 338.882 170.371 330.75C155.285 328.353 141.166 323.174 131.087 311.82C126.851 305.941 123.755 299.451 120.615 293L120 292C122.5 293 127.144 294.682 129.319 296.125C143.706 305.264 159.423 308.402 176.598 308.312C177.752 308.307 178.905 308.301 180.094 308.295C190.079 308.155 199.529 307.189 209.239 305C210.097 304.807 210.955 304.613 211.84 304.414C253.746 294.633 292.363 271.95 323.781 244.246C325.931 242.365 328.122 240.584 330.371 238.812C340.031 230.843 348.641 221.379 356.607 211.906C358.435 209.737 360.283 207.597 362.163 205.469C380.818 184.245 397.281 161.024 409.697 136L410.752 134C409.76 133.951 408.767 133.902 407.744 133.852C406.43 133.777 405.116 133.702 403.763 133.625C402.465 133.555 401.168 133.486 399.831 133.414C396.154 133.019 393.101 132.237 389.651 131C392.056 128.506 394.514 126.933 397.618 125.285C399.066 124.512 399.066 124.512 400.544 123.723C402.104 122.901 402.104 122.901 403.697 122.062C404.775 121.491 405.853 120.919 406.963 120.329C410.332 118.546 413.706 116.771 417.083 115C418.119 114.455 419.156 113.91 420.224 113.349C430.053 108.192 439.916 103.094 449.921 98.25C450.942 97.7467 450.942 97.7467 451.983 97.2332C455.491 95.5641 457.364 95 461.395 95Z" fill="#E87B18"/>
<path d="M273.596 123C279.378 133.441 283.773 144.208 287.707 155.375C287.935 156.015 288.164 156.656 288.399 157.316C291.177 165.142 293.443 172.822 294.697 181C270.156 183.984 242.968 186.015 221.734 171.559C218.891 169.281 216.722 166.836 214.513 164C220.961 147.713 236.018 134.879 252.297 127.563C259.734 124.529 265.415 122.908 273.596 123Z" fill="white"/>
<path d="M208.183 176C209.258 176.587 210.332 177.173 211.439 177.777C239.455 192.922 265.633 192.244 296.807 188C299.23 199.522 299.23 199.522 298.917 205C296.808 205.484 294.698 205.962 292.587 206.438C291.412 206.704 290.237 206.971 289.026 207.246C259.992 212.969 228.341 209.638 200.798 200C201.229 193.795 202.476 188.632 205.084 182.938C205.381 182.263 205.678 181.588 205.984 180.893C206.706 179.257 207.443 177.628 208.183 176Z" fill="white"/>
<path d="M228.229 132C227.514 132.401 226.798 132.802 226.061 133.215C205.243 145.267 191.25 163.462 183.925 185.332C182.862 188 182.862 188 180.752 189C175.133 183.818 171.198 180.097 170.861 172.437C170.979 164.752 174.578 158.724 179.895 153.062C191.373 142.962 206.045 136.406 220.844 132C221.63 131.765 222.416 131.531 223.226 131.289C225.064 131 225.064 131 228.229 132Z" fill="white"/>
<path d="M405.572 214C410.043 217.056 410.431 221.328 411.255 226.145C411.4 227.031 411.558 227.917 411.715 228.837C414.708 248.355 417.252 277.825 404.36 294.662C393.734 307.443 375.013 320.315 357.71 324.2C360.739 322.496 357.928 324.586 357.104 324.2C357.589 322.905 360.497 320.474 360.994 319.144C366.531 303.807 370.311 288.55 370.614 272.304C370.627 271.77 370.627 271.77 370.687 269.066C370.723 267.021 370.711 264.965 370.651 262.92C370.699 257.432 371.354 254.569 375.607 250.639C377.109 249.412 381.653 244.197 383.155 242.97C385.009 240.834 383.773 242.629 385.506 240.414C386.415 239.244 387.336 238.074 388.281 236.869C389.19 235.699 390.098 234.529 391.031 233.313C391.916 232.189 392.801 231.053 393.709 229.894C397.793 224.668 401.816 219.43 405.572 214Z" fill="#DF6414"/>
<path d="M253.429 342.306C265.788 344.59 277.881 345.51 290.458 345.783C288.543 360.449 286.825 362.259 274.708 390.093C255.321 387.821 246.231 382.683 235.75 374.809C226.178 366.777 212.889 353.951 206.612 343.374C206.612 342.25 222.001 344.649 209.278 343.513C209.738 343.445 204.941 343.579 207.231 343.192C207.825 343.09 213.83 342.954 216.848 342.442C218.035 342.249 219.21 342.056 220.434 341.852C223.815 341.238 223.815 341.238 226.105 340.647C235.205 338.716 244.474 340.545 253.429 342.306Z" fill="#042A52"/>
<path d="M139.605 336.129C139.932 336.231 139.932 336.231 141.616 336.765C148.099 338.821 154.594 340.798 161.185 342.514C162.167 342.775 163.148 343.036 164.154 343.309C170.624 344.888 176.392 345.354 183.056 345.206C196.797 344.945 195.949 344.649 195.949 344.649C199.729 348.524 209.241 357.873 212.307 362.259C223.818 376.971 243.132 386.719 261.841 390.388C263.925 390.797 269.014 393.558 271.074 394.069C271.074 394.069 271.68 394.069 270.468 394.069C237.146 395.773 188.339 383.083 155.357 354.306C149.347 348.728 143.773 343.059 139.605 336.129Z" fill="#062A53"/>
<path d="M403.148 300.342C404.36 303.751 404.36 303.751 402.652 307.625C401.828 309.181 400.979 310.726 400.119 312.271C399.671 313.089 399.235 313.896 398.774 314.736C391.795 327.324 383.725 339.253 372.856 349.194C372.287 349.853 371.729 350.523 371.148 351.205C355.468 369.552 327.09 381.084 303.79 387.684C302.929 387.923 302.081 388.173 301.196 388.423C296.277 389.752 291.939 390.343 286.826 390.093C290.206 387.98 292.703 387.048 296.519 385.901C322.038 377.335 341.582 356.726 353.469 334.425C355.505 333.414 357.589 332.482 359.673 331.585C376.14 324.03 391.855 314.032 403.148 300.342Z" fill="#B33905"/>
<path d="M353.58 269.258C353.947 278.222 352.982 291.48 350.905 300.216C350.77 300.807 350.77 300.807 350.074 303.795C348.425 310.657 346.69 317.484 344.491 324.221C344.064 325.528 343.636 326.834 343.197 328.186C341.364 331.174 341.364 331.174 337.98 332.663C327.279 334.787 316.896 336.128 305.938 335.719C305.633 310.759 307.307 310.214 312.878 303.795C316.86 300.489 348.975 271.735 353.58 269.258C353.58 269.258 329.979 289.105 333.424 286.299C333.742 286.038 331.152 287.617 332.813 286.299C337.37 282.641 349.097 273.007 353.58 269.258Z" fill="#D0500A"/>
<path d="M335.293 341.241C321.262 362.861 305.8 376.982 280.767 386.685C282.742 381.527 285.565 376.994 288.497 372.268C292.132 366.315 295.44 360.464 297.912 353.977C298.251 353.147 298.591 352.318 298.942 351.466C299.294 350.296 299.79 349.83 300.154 348.626C304.528 341.378 301.681 341.378 312.271 341.877C313.555 341.718 315.118 342.048 316.439 341.877C317.711 341.684 303.183 342.377 335.293 341.241Z" fill="#9E3205"/>
<path d="M295.453 314.543C295.514 316.645 295.417 319.326 295.453 321.428C295.489 322.609 295.514 323.78 295.55 324.984C295.271 329.244 295.55 332.51 295.308 336.697C290.461 336.765 283.191 336.799 278.344 336.833C276.975 336.856 275.618 336.879 274.212 336.901C266.651 336.935 260.132 336.538 252.898 334.425C255.491 331.993 257.321 331.221 260.702 329.937C261.78 329.517 262.858 329.096 263.973 328.665C265.112 328.222 266.263 327.779 267.439 327.324C275.666 324.098 283.457 320.883 290.897 316.247C292.884 315.111 293.03 314.543 295.453 314.543Z" fill="#073963"/>
<path d="M204.021 384.692C213.903 387.217 217.347 388.105 218.048 388.296C218.474 388.411 218.898 388.526 219.323 388.641C217.684 388.907 216.044 389.172 214.405 389.439C198.984 391.935 196.969 392.472 197.673 393.892C198.582 395.728 215.33 398.191 237.176 399.702C259.213 401.226 285.144 400.185 308.223 396.849C326.351 394.228 327.206 393.632 316.708 390.924C312.958 389.958 309.351 388.793 307.494 387.513C307.92 387.399 308.344 387.284 308.769 387.17C309.47 386.98 313.898 385.966 327.169 383C329.841 383 332.511 383 335.184 383C335.86 383.081 336.538 383.162 337.216 383.244C338.332 383.378 344.479 383.898 350.878 384.399C367.185 385.678 378.356 387.258 384.643 389.177C389.002 390.507 391.965 392.013 391.999 392.915C392.087 395.232 380.937 398.597 367.975 400.163C350.924 402.224 336.904 403.054 286.362 405C270.817 405 255.272 405 239.727 405C235.537 404.814 231.347 404.628 227.157 404.442C187.323 402.673 162.243 400.237 149.006 396.854C138.655 394.21 137.969 393.511 143.192 390.947C151.881 386.681 169.193 384.193 194.548 383.564C195.207 384.438 196.007 384.692 196.752 384.692C197.496 384.692 198.329 384.97 198.6 385.311C199.12 385.965 204.021 385.763 204.021 385.088C204.021 384.956 204.021 384.824 204.021 384.692Z" fill="#B1B4B5" fill-opacity="0.15"/>
<defs>
<linearGradient id="paint0_linear_29_1726" x1="587.5" y1="193" x2="587.5" y2="289" gradientUnits="userSpaceOnUse">
<stop stop-color="#0164A8"/>
<stop offset="1" stop-color="#00457B"/>
</linearGradient>
<linearGradient id="paint1_linear_29_1726" x1="865" y1="193" x2="865" y2="289" gradientUnits="userSpaceOnUse">
<stop stop-color="#E56412"/>
<stop offset="0.681119" stop-color="#B03602"/>
</linearGradient>
</defs>
</svg>