<svg width="1180" height="664" viewBox="0 0 1180 664" fill="none" xmlns="http://www.w3.org/2000/svg">
<rect width="1180" height="664" fill="none"/>
<path d="M469.384 246.272H500.392V260.96H469.384V246.272ZM470.728 284H451.72V216.8H504.424V231.488H470.728V284ZM511.314 284V216.8H530.322V268.928H562.386V284H511.314ZM578.056 284V255.584L582.472 267.008L552.424 216.8H572.488L594.184 253.184H582.568L604.36 216.8H622.792L592.84 267.008L597.064 255.584V284H578.056ZM625.345 284V216.8H644.353V284H625.345ZM655.876 284V216.8H671.524L708.58 261.536H701.188V216.8H719.812V284H704.164L667.108 239.264H674.5V284H655.876Z" fill="url(#paint0_linear_100_2)"/>
<path d="M751.024 284V231.872H730.384V216.8H790.576V231.872H770.032V284H751.024ZM781.419 284L811.083 216.8H829.803L859.563 284H839.787L816.555 226.112H824.043L800.811 284H781.419ZM797.643 270.944L802.539 256.928H835.371L840.267 270.944H797.643ZM877.143 269.12L876.087 247.808L904.983 216.8H925.911L897.111 248L886.551 259.04L877.143 269.12ZM860.151 284V216.8H878.967V284H860.151ZM905.271 284L883.383 256.256L895.767 243.008L927.351 284H905.271ZM945.011 242.816H976.211V257.024H945.011V242.816ZM946.355 269.312H981.491V284H927.539V216.8H980.243V231.488H946.355V269.312Z" fill="url(#paint1_linear_100_2)"/>
<path d="M485.752 313.16C485.176 312.051 484.376 311.219 483.352 310.664C482.328 310.088 481.144 309.8 479.8 309.8C478.328 309.8 477.016 310.131 475.864 310.792C474.712 311.453 473.805 312.392 473.144 313.608C472.504 314.824 472.184 316.232 472.184 317.832C472.184 319.432 472.504 320.851 473.144 322.088C473.805 323.304 474.712 324.243 475.864 324.904C477.016 325.565 478.328 325.896 479.8 325.896C481.784 325.896 483.395 325.341 484.632 324.232C485.869 323.123 486.627 321.619 486.904 319.72H478.552V316.808H490.808V319.656C490.573 321.384 489.955 322.973 488.952 324.424C487.971 325.875 486.68 327.037 485.08 327.912C483.501 328.765 481.741 329.192 479.8 329.192C477.709 329.192 475.8 328.712 474.072 327.752C472.344 326.771 470.968 325.416 469.944 323.688C468.941 321.96 468.44 320.008 468.44 317.832C468.44 315.656 468.941 313.704 469.944 311.976C470.968 310.248 472.344 308.904 474.072 307.944C475.821 306.963 477.731 306.472 479.8 306.472C482.168 306.472 484.269 307.059 486.104 308.232C487.96 309.384 489.304 311.027 490.136 313.16H485.752ZM508.054 326.056H515.574V329H504.406V306.76H508.054V326.056ZM538.769 329.224C536.699 329.224 534.79 328.744 533.041 327.784C531.313 326.803 529.937 325.448 528.913 323.72C527.91 321.971 527.409 320.008 527.409 317.832C527.409 315.656 527.91 313.704 528.913 311.976C529.937 310.248 531.313 308.904 533.041 307.944C534.79 306.963 536.699 306.472 538.769 306.472C540.859 306.472 542.769 306.963 544.497 307.944C546.246 308.904 547.622 310.248 548.625 311.976C549.627 313.704 550.129 315.656 550.129 317.832C550.129 320.008 549.627 321.971 548.625 323.72C547.622 325.448 546.246 326.803 544.497 327.784C542.769 328.744 540.859 329.224 538.769 329.224ZM538.769 326.056C540.241 326.056 541.553 325.725 542.705 325.064C543.857 324.381 544.753 323.421 545.393 322.184C546.054 320.925 546.385 319.475 546.385 317.832C546.385 316.189 546.054 314.749 545.393 313.512C544.753 312.275 543.857 311.325 542.705 310.664C541.553 310.003 540.241 309.672 538.769 309.672C537.297 309.672 535.985 310.003 534.833 310.664C533.681 311.325 532.774 312.275 532.113 313.512C531.473 314.749 531.153 316.189 531.153 317.832C531.153 319.475 531.473 320.925 532.113 322.184C532.774 323.421 533.681 324.381 534.833 325.064C535.985 325.725 537.297 326.056 538.769 326.056ZM575.622 317.576C576.817 317.789 577.83 318.419 578.662 319.464C579.494 320.509 579.91 321.693 579.91 323.016C579.91 324.147 579.612 325.171 579.014 326.088C578.438 326.984 577.596 327.699 576.486 328.232C575.377 328.744 574.086 329 572.614 329H563.718V306.76H572.198C573.713 306.76 575.014 307.016 576.102 307.528C577.19 308.04 578.012 308.733 578.566 309.608C579.121 310.461 579.398 311.421 579.398 312.488C579.398 313.768 579.057 314.835 578.374 315.688C577.692 316.541 576.774 317.171 575.622 317.576ZM567.366 316.104H571.878C573.073 316.104 574.001 315.837 574.662 315.304C575.345 314.749 575.686 313.96 575.686 312.936C575.686 311.933 575.345 311.155 574.662 310.6C574.001 310.024 573.073 309.736 571.878 309.736H567.366V316.104ZM572.294 326.024C573.532 326.024 574.502 325.725 575.206 325.128C575.91 324.531 576.262 323.699 576.262 322.632C576.262 321.544 575.889 320.68 575.142 320.04C574.396 319.4 573.404 319.08 572.166 319.08H567.366V326.024H572.294ZM607.283 324.456H597.971L596.371 329H592.563L600.531 306.728H604.755L612.723 329H608.883L607.283 324.456ZM606.259 321.48L602.643 311.144L598.995 321.48H606.259ZM629.835 326.056H637.355V329H626.187V306.76H629.835V326.056ZM667.502 317.832C667.502 315.656 668.004 313.704 669.006 311.976C670.03 310.248 671.406 308.904 673.134 307.944C674.884 306.963 676.793 306.472 678.862 306.472C681.23 306.472 683.332 307.059 685.166 308.232C687.022 309.384 688.366 311.027 689.198 313.16H684.814C684.238 311.987 683.438 311.112 682.414 310.536C681.39 309.96 680.206 309.672 678.862 309.672C677.39 309.672 676.078 310.003 674.926 310.664C673.774 311.325 672.868 312.275 672.206 313.512C671.566 314.749 671.246 316.189 671.246 317.832C671.246 319.475 671.566 320.915 672.206 322.152C672.868 323.389 673.774 324.349 674.926 325.032C676.078 325.693 677.39 326.024 678.862 326.024C680.206 326.024 681.39 325.736 682.414 325.16C683.438 324.584 684.238 323.709 684.814 322.536H689.198C688.366 324.669 687.022 326.312 685.166 327.464C683.332 328.616 681.23 329.192 678.862 329.192C676.772 329.192 674.862 328.712 673.134 327.752C671.406 326.771 670.03 325.416 669.006 323.688C668.004 321.96 667.502 320.008 667.502 317.832ZM713.612 329.224C711.543 329.224 709.634 328.744 707.884 327.784C706.156 326.803 704.78 325.448 703.756 323.72C702.754 321.971 702.252 320.008 702.252 317.832C702.252 315.656 702.754 313.704 703.756 311.976C704.78 310.248 706.156 308.904 707.884 307.944C709.634 306.963 711.543 306.472 713.612 306.472C715.703 306.472 717.612 306.963 719.34 307.944C721.09 308.904 722.466 310.248 723.468 311.976C724.471 313.704 724.972 315.656 724.972 317.832C724.972 320.008 724.471 321.971 723.468 323.72C722.466 325.448 721.09 326.803 719.34 327.784C717.612 328.744 715.703 329.224 713.612 329.224ZM713.612 326.056C715.084 326.056 716.396 325.725 717.548 325.064C718.7 324.381 719.596 323.421 720.236 322.184C720.898 320.925 721.228 319.475 721.228 317.832C721.228 316.189 720.898 314.749 720.236 313.512C719.596 312.275 718.7 311.325 717.548 310.664C716.396 310.003 715.084 309.672 713.612 309.672C712.14 309.672 710.828 310.003 709.676 310.664C708.524 311.325 707.618 312.275 706.956 313.512C706.316 314.749 705.996 316.189 705.996 317.832C705.996 319.475 706.316 320.925 706.956 322.184C707.618 323.421 708.524 324.381 709.676 325.064C710.828 325.725 712.14 326.056 713.612 326.056ZM756.834 329H753.186L742.21 312.392V329H738.562V306.728H742.21L753.186 323.304V306.728H756.834V329ZM778.953 329.224C777.459 329.224 776.115 328.968 774.921 328.456C773.726 327.923 772.787 327.176 772.105 326.216C771.422 325.256 771.081 324.136 771.081 322.856H774.985C775.07 323.816 775.443 324.605 776.105 325.224C776.787 325.843 777.737 326.152 778.953 326.152C780.211 326.152 781.193 325.853 781.897 325.256C782.601 324.637 782.953 323.848 782.953 322.888C782.953 322.141 782.729 321.533 782.281 321.064C781.854 320.595 781.31 320.232 780.649 319.976C780.009 319.72 779.113 319.443 777.961 319.144C776.51 318.76 775.326 318.376 774.409 317.992C773.513 317.587 772.745 316.968 772.105 316.136C771.465 315.304 771.145 314.195 771.145 312.808C771.145 311.528 771.465 310.408 772.105 309.448C772.745 308.488 773.641 307.752 774.793 307.24C775.945 306.728 777.278 306.472 778.793 306.472C780.947 306.472 782.707 307.016 784.073 308.104C785.459 309.171 786.227 310.643 786.377 312.52H782.345C782.281 311.709 781.897 311.016 781.193 310.44C780.489 309.864 779.561 309.576 778.409 309.576C777.363 309.576 776.51 309.843 775.849 310.376C775.187 310.909 774.857 311.677 774.857 312.68C774.857 313.363 775.059 313.928 775.465 314.376C775.891 314.803 776.425 315.144 777.065 315.4C777.705 315.656 778.579 315.933 779.689 316.232C781.161 316.637 782.355 317.043 783.273 317.448C784.211 317.853 785.001 318.483 785.641 319.336C786.302 320.168 786.633 321.288 786.633 322.696C786.633 323.827 786.323 324.893 785.705 325.896C785.107 326.899 784.222 327.709 783.049 328.328C781.897 328.925 780.531 329.224 778.953 329.224ZM804.553 306.76V320.936C804.553 322.621 804.99 323.891 805.865 324.744C806.761 325.597 807.998 326.024 809.577 326.024C811.177 326.024 812.414 325.597 813.289 324.744C814.185 323.891 814.633 322.621 814.633 320.936V306.76H818.281V320.872C818.281 322.685 817.886 324.221 817.097 325.48C816.308 326.739 815.252 327.677 813.929 328.296C812.606 328.915 811.145 329.224 809.545 329.224C807.945 329.224 806.484 328.915 805.161 328.296C803.86 327.677 802.825 326.739 802.057 325.48C801.289 324.221 800.905 322.685 800.905 320.872V306.76H804.553ZM836.679 326.056H844.199V329H833.031V306.76H836.679V326.056ZM871.618 306.76V309.736H865.698V329H862.05V309.736H856.098V306.76H871.618ZM888.96 306.76V329H885.312V306.76H888.96ZM922.022 329H918.374L907.398 312.392V329H903.75V306.728H907.398L918.374 323.304V306.728H922.022V329ZM952.908 313.16C952.332 312.051 951.532 311.219 950.508 310.664C949.484 310.088 948.3 309.8 946.956 309.8C945.484 309.8 944.172 310.131 943.02 310.792C941.868 311.453 940.961 312.392 940.3 313.608C939.66 314.824 939.34 316.232 939.34 317.832C939.34 319.432 939.66 320.851 940.3 322.088C940.961 323.304 941.868 324.243 943.02 324.904C944.172 325.565 945.484 325.896 946.956 325.896C948.94 325.896 950.551 325.341 951.788 324.232C953.025 323.123 953.783 321.619 954.06 319.72H945.708V316.808H957.964V319.656C957.729 321.384 957.111 322.973 956.108 324.424C955.127 325.875 953.836 327.037 952.236 327.912C950.657 328.765 948.897 329.192 946.956 329.192C944.865 329.192 942.956 328.712 941.228 327.752C939.5 326.771 938.124 325.416 937.1 323.688C936.097 321.96 935.596 320.008 935.596 317.832C935.596 315.656 936.097 313.704 937.1 311.976C938.124 310.248 939.5 308.904 941.228 307.944C942.977 306.963 944.887 306.472 946.956 306.472C949.324 306.472 951.425 307.059 953.26 308.232C955.116 309.384 956.46 311.027 957.292 313.16H952.908Z" fill="#6D6D6D"/>
<path d="M445.34 361.908C445.72 361.847 471.703 361.753 503.081 361.699C561.694 361.597 562.671 361.606 560.368 362.201C559.492 362.428 446.068 362.382 445.18 362.155C444.887 362.08 444.96 361.969 445.34 361.908Z" fill="#7F7F7F"/>
<path d="M588.94 359.48C588.94 360.293 588.753 361.04 588.38 361.72C588.007 362.387 587.433 362.927 586.66 363.34C585.887 363.753 584.927 363.96 583.78 363.96H581.66V369H578.24V354.96H583.78C584.9 354.96 585.847 355.153 586.62 355.54C587.393 355.927 587.973 356.46 588.36 357.14C588.747 357.82 588.94 358.6 588.94 359.48ZM583.52 361.24C584.173 361.24 584.66 361.087 584.98 360.78C585.3 360.473 585.46 360.04 585.46 359.48C585.46 358.92 585.3 358.487 584.98 358.18C584.66 357.873 584.173 357.72 583.52 357.72H581.66V361.24H583.52ZM606.88 369L603.96 363.7H603.14V369H599.72V354.96H605.46C606.567 354.96 607.507 355.153 608.28 355.54C609.067 355.927 609.654 356.46 610.04 357.14C610.427 357.807 610.62 358.553 610.62 359.38C610.62 360.313 610.354 361.147 609.82 361.88C609.3 362.613 608.527 363.133 607.5 363.44L610.74 369H606.88ZM603.14 361.28H605.26C605.887 361.28 606.354 361.127 606.66 360.82C606.98 360.513 607.14 360.08 607.14 359.52C607.14 358.987 606.98 358.567 606.66 358.26C606.354 357.953 605.887 357.8 605.26 357.8H603.14V361.28ZM625.187 354.96V369H621.767V354.96H625.187ZM649.846 354.96L644.866 369H640.586L635.606 354.96H639.246L642.726 365.56L646.226 354.96H649.846ZM669.015 366.52H663.775L662.935 369H659.355L664.435 354.96H668.395L673.475 369H669.855L669.015 366.52ZM668.135 363.88L666.395 358.74L664.675 363.88H668.135ZM694.121 354.96V357.7H690.401V369H686.981V357.7H683.261V354.96H694.121ZM708.258 357.7V360.54H712.838V363.18H708.258V366.26H713.438V369H704.838V354.96H713.438V357.7H708.258ZM741.316 366.36H745.796V369H737.896V354.96H741.316V366.36ZM759.848 354.96V369H756.428V354.96H759.848ZM787.226 354.96V369H783.806V360.58L780.666 369H777.906L774.746 360.56V369H771.326V354.96H775.366L779.306 364.68L783.206 354.96H787.226ZM802.105 354.96V369H798.685V354.96H802.105ZM823.684 354.96V357.7H819.964V369H816.544V357.7H812.824V354.96H823.684ZM837.82 357.7V360.54H842.4V363.18H837.82V366.26H843V369H834.4V354.96H843V357.7H837.82ZM859.48 354.96C860.96 354.96 862.254 355.253 863.36 355.84C864.467 356.427 865.32 357.253 865.92 358.32C866.534 359.373 866.84 360.593 866.84 361.98C866.84 363.353 866.534 364.573 865.92 365.64C865.32 366.707 864.46 367.533 863.34 368.12C862.234 368.707 860.947 369 859.48 369H854.22V354.96H859.48ZM859.26 366.04C860.554 366.04 861.56 365.687 862.28 364.98C863 364.273 863.36 363.273 863.36 361.98C863.36 360.687 863 359.68 862.28 358.96C861.56 358.24 860.554 357.88 859.26 357.88H857.64V366.04H859.26Z" fill="#666666"/>
<path d="M941.659 361.707C973.373 361.737 999.513 361.815 999.749 361.879C999.984 361.944 1000.07 362.024 999.938 362.058C999.808 362.092 973.668 362.172 941.85 362.235C922.567 362.273 903.283 362.312 884 362.35C884 362.233 884 362.117 884 362C884 361.883 884 361.767 884 361.65C903.219 361.669 922.44 361.687 941.659 361.707Z" fill="#7F7F7F"/>
<path d="M340.064 132C337.326 133.297 336.554 132.772 333.689 131.89C332.824 131.632 331.96 131.373 331.069 131.106C330.142 130.823 329.216 130.541 328.261 130.25C311.45 125.295 295.424 122.768 277.817 123C278.355 123.599 278.894 124.199 279.449 124.816C292.198 139.879 300.588 157.903 307.358 176C312.046 176 315.824 174.94 320.216 173.562C321.044 173.304 321.873 173.045 322.726 172.779C330.617 170.193 337.781 166.626 345.043 162.758C348.505 161 348.505 161 350.615 161C347.442 169.311 333.685 174.138 325.736 177.745C322.426 179.215 319.106 180.665 315.773 182.089C313.65 183.017 311.559 184.009 309.468 185L313.688 200C337.585 192.052 358.78 179.923 374.881 161C375.936 164 375.936 164 374.757 166.496C364.605 182.597 352.66 196.574 336.899 208C335.589 208.982 335.589 208.982 334.253 209.984C301.286 233.874 258.795 243.251 217.927 243.13C215.751 243.125 213.576 243.13 211.4 243.137C209.991 243.136 208.583 243.135 207.174 243.133C205.923 243.132 204.672 243.13 203.383 243.129C199.743 243 199.743 243 192.358 242V262C228 268 264.911 253.741 298.093 239.082C301.056 237.781 302.988 237 306.303 237C296.88 258.124 255.062 275.057 234.481 283.183C223.156 287.41 209.921 292 197.633 292L198.688 301L182.862 302L180.752 294C179.882 294.035 179.012 294.069 178.115 294.105C161.462 294.475 143.849 292.339 130.77 281.75C121.814 273.534 115.895 265 116.011 252.902C116.012 250.923 115.985 248.955 116.011 246.975C116.036 244.95 116.018 243.001 116.011 240.975C116.011 229.687 116.005 222.975 116.5 222.5C119.5 224.5 121.5 227 123.582 229.687C133.5 240.975 142.456 249.688 157.541 255C165.341 257.618 165.454 258 173.367 261V240L163.872 235.5C150.156 227 136.634 222.166 129.776 208.164C126.007 199.077 126.343 192.02 130.11 183C134.075 175.255 139.675 169.16 145.936 163L148.606 160.312C155.948 153.108 163.863 146.985 172.312 141C172.92 140.563 173.529 140.125 174.155 139.675C219.34 107.294 291.294 102.833 340.064 132Z" fill="#025795"/>
<path d="M461.395 95C461.639 111.189 461.44 127.275 460.405 143.438C460.359 144.168 460.314 144.898 460.266 145.65C459.83 152.476 459.319 159.233 458.229 166C453.937 163.063 451.311 160.031 448.47 155.812C446.21 152.228 446.21 152.228 443.459 149C443.016 149.766 443.016 149.766 442.564 150.547C426.36 178.401 407.407 204.908 384.731 228.418C383.404 229.808 382.083 231.204 380.8 232.63C375.297 238.73 369.389 244.426 363.415 250.108C361.648 251.792 359.893 253.487 358.138 255.182C350.162 262.817 341.769 269.588 332.679 276C331.662 276.721 330.646 277.441 329.598 278.183C284.395 309.731 228.614 338.882 170.371 330.75C155.285 328.353 141.166 323.174 131.087 311.82C126.851 305.941 123.755 299.451 120.615 293L120 292C122.5 293 127.144 294.682 129.319 296.125C143.706 305.264 159.423 308.402 176.598 308.312C177.752 308.307 178.905 308.301 180.094 308.295C190.079 308.155 199.529 307.189 209.239 305C210.097 304.807 210.955 304.613 211.84 304.414C253.746 294.633 292.363 271.95 323.781 244.246C325.931 242.365 328.122 240.584 330.371 238.812C340.031 230.843 348.641 221.379 356.607 211.906C358.435 209.737 360.283 207.597 362.163 205.469C380.818 184.245 397.281 161.024 409.697 136L410.752 134C409.76 133.951 408.767 133.902 407.744 133.852C406.43 133.777 405.116 133.702 403.763 133.625C402.465 133.555 401.168 133.486 399.831 133.414C396.154 133.019 393.101 132.237 389.651 131C392.056 128.506 394.514 126.933 397.618 125.285C399.066 124.512 399.066 124.512 400.544 123.723C402.104 122.901 402.104 122.901 403.697 122.062C404.775 121.491 405.853 120.919 406.963 120.329C410.332 118.546 413.706 116.771 417.083 115C418.119 114.455 419.156 113.91 420.224 113.349C430.053 108.192 439.916 103.094 449.921 98.25C450.942 97.7467 450.942 97.7467 451.983 97.2332C455.491 95.5641 457.364 95 461.395 95Z" fill="#E87B18"/>
<path d="M273.596 123C279.378 133.441 283.773 144.208 287.707 155.375C287.935 156.015 288.164 156.656 288.399 157.316C291.177 165.142 293.443 172.822 294.697 181C270.156 183.984 242.968 186.015 221.734 171.559C218.891 169.281 216.722 166.836 214.513 164C220.961 147.713 236.018 134.879 252.297 127.563C259.734 124.529 265.415 122.908 273.596 123Z" fill="white"/>
<path d="M208.183 176C209.258 176.587 210.332 177.173 211.439 177.777C239.455 192.922 265.633 192.244 296.807 188C299.23 199.522 299.23 199.522 298.917 205C296.808 205.484 294.698 205.962 292.587 206.438C291.412 206.704 290.237 206.971 289.026 207.246C259.992 212.969 228.341 209.638 200.798 200C201.229 193.795 202.476 188.632 205.084 182.938C205.381 182.263 205.678 181.588 205.984 180.893C206.706 179.257 207.443 177.628 208.183 176Z" fill="white"/>
<path d="M228.229 132C227.514 132.401 226.798 132.802 226.061 133.215C205.243 145.267 191.25 163.462 183.925 185.332C182.862 188 182.862 188 180.752 189C175.133 183.818 171.198 180.097 170.861 172.437C170.979 164.752 174.578 158.724 179.895 153.062C191.373 142.962 206.045 136.406 220.844 132C221.63 131.765 222.416 131.531 223.226 131.289C225.064 131 225.064 131 228.229 132Z" fill="white"/>
<path d="M405.572 214C410.043 217.056 410.431 221.328 411.255 226.145C411.4 227.031 411.558 227.917 411.715 228.837C414.708 248.355 417.252 277.825 404.36 294.662C393.734 307.443 375.013 320.315 357.71 324.2C360.739 322.496 357.928 324.586 357.104 324.2C357.589 322.905 360.497 320.474 360.994 319.144C366.531 303.807 370.311 288.55 370.614 272.304C370.627 271.77 370.627 271.77 370.687 269.066C370.723 267.021 370.711 264.965 370.651 262.92C370.699 257.432 371.354 254.569 375.607 250.639C377.109 249.412 381.653 244.197 383.155 242.97C385.009 240.834 383.773 242.629 385.506 240.414C386.415 239.244 387.336 238.074 388.281 236.869C389.19 235.699 390.098 234.529 391.031 233.313C391.916 232.189 392.801 231.053 393.709 229.894C397.793 224.668 401.816 219.43 405.572 214Z" fill="#DF6414"/>
<path d="M253.429 342.306C265.788 344.59 277.881 345.51 290.458 345.783C288.543 360.449 286.825 362.259 274.708 390.093C255.321 387.821 246.231 382.682 235.75 374.809C226.178 366.777 212.889 353.951 206.612 343.374C206.612 342.25 222.001 344.649 209.278 343.513C209.738 343.445 204.941 343.579 207.231 343.192C207.825 343.09 213.83 342.954 216.848 342.442C218.035 342.249 219.21 342.056 220.434 341.852C223.815 341.238 223.815 341.238 226.105 340.647C235.205 338.716 244.474 340.545 253.429 342.306Z" fill="#042A52"/>
<path d="M139.605 336.129C139.932 336.231 139.932 336.231 141.616 336.765C148.099 338.821 154.594 340.798 161.185 342.514C162.167 342.775 163.148 343.036 164.154 343.309C170.624 344.888 176.392 345.354 183.056 345.206C196.797 344.945 195.949 344.65 195.949 344.65C199.729 348.524 209.241 357.874 212.307 362.259C223.818 376.971 243.132 386.719 261.841 390.388C263.925 390.797 269.014 393.558 271.074 394.069C271.074 394.069 271.68 394.069 270.468 394.069C237.146 395.773 188.339 383.083 155.357 354.306C149.347 348.728 143.773 343.059 139.605 336.129Z" fill="#062A53"/>
<path d="M403.148 300.342C404.36 303.751 404.36 303.751 402.652 307.625C401.828 309.181 400.979 310.726 400.119 312.271C399.671 313.089 399.235 313.896 398.774 314.736C391.795 327.324 383.725 339.253 372.856 349.194C372.287 349.853 371.729 350.523 371.148 351.205C355.468 369.552 327.09 381.084 303.79 387.684C302.929 387.923 302.081 388.173 301.196 388.423C296.277 389.752 291.939 390.343 286.826 390.093C290.206 387.98 292.703 387.048 296.519 385.901C322.038 377.335 341.582 356.726 353.469 334.425C355.505 333.414 357.589 332.482 359.673 331.585C376.14 324.03 391.855 314.032 403.148 300.342Z" fill="#B33905"/>
<path d="M353.58 269.258C353.947 278.222 352.982 291.48 350.905 300.216C350.77 300.807 350.77 300.807 350.074 303.795C348.425 310.657 346.69 317.484 344.491 324.221C344.064 325.528 343.636 326.834 343.197 328.186C341.364 331.174 341.364 331.174 337.98 332.663C327.279 334.787 316.896 336.128 305.938 335.719C305.633 310.759 307.307 310.214 312.878 303.795C316.86 300.489 348.975 271.735 353.58 269.258C353.58 269.258 329.979 289.105 333.424 286.299C333.742 286.038 331.152 287.617 332.813 286.299C337.37 282.641 349.097 273.007 353.58 269.258Z" fill="#D0500A"/>
<path d="M335.293 341.241C321.262 362.861 305.8 376.982 280.767 386.685C282.742 381.527 285.565 376.994 288.497 372.268C292.132 366.315 295.44 360.464 297.912 353.977C298.251 353.147 298.591 352.318 298.942 351.466C299.294 350.296 299.79 349.83 300.154 348.626C304.528 341.378 301.681 341.378 312.271 341.877C313.555 341.718 315.118 342.048 316.439 341.877C317.711 341.684 303.183 342.377 335.293 341.241Z" fill="#9E3205"/>
<path d="M295.453 314.543C295.514 316.645 295.417 319.326 295.453 321.428C295.489 322.61 295.514 323.78 295.55 324.984C295.271 329.244 295.55 332.51 295.308 336.697C290.461 336.765 283.191 336.799 278.344 336.833C276.975 336.856 275.618 336.879 274.212 336.901C266.651 336.936 260.132 336.538 252.898 334.425C255.491 331.994 257.321 331.221 260.702 329.937C261.78 329.517 262.858 329.097 263.973 328.665C265.112 328.222 266.263 327.779 267.439 327.324C275.666 324.098 283.457 320.883 290.897 316.247C292.884 315.111 293.03 314.543 295.453 314.543Z" fill="#073963"/>
<path d="M204.021 384.692C213.903 387.217 217.347 388.105 218.048 388.296C218.474 388.411 218.898 388.526 219.323 388.641C217.684 388.907 216.044 389.172 214.405 389.439C198.984 391.935 196.969 392.472 197.673 393.892C198.582 395.728 215.33 398.191 237.176 399.702C259.213 401.226 285.144 400.185 308.223 396.849C326.351 394.228 327.206 393.632 316.708 390.924C312.958 389.958 309.351 388.793 307.494 387.513C307.92 387.399 308.344 387.284 308.769 387.17C309.47 386.98 313.898 385.966 327.169 383C329.841 383 332.511 383 335.184 383C335.86 383.081 336.538 383.162 337.216 383.244C338.332 383.378 344.479 383.898 350.878 384.399C367.185 385.678 378.356 387.258 384.643 389.177C389.002 390.507 391.965 392.013 391.999 392.915C392.087 395.232 380.937 398.597 367.975 400.163C350.924 402.224 336.904 403.054 286.362 405C270.817 405 255.272 405 239.727 405C235.537 404.814 231.347 404.628 227.157 404.442C187.323 402.673 162.243 400.237 149.006 396.854C138.655 394.21 137.969 393.511 143.192 390.947C151.881 386.681 169.193 384.193 194.548 383.564C195.207 384.438 196.007 384.692 196.752 384.692C197.496 384.692 198.329 384.97 198.6 385.311C199.12 385.965 204.021 385.763 204.021 385.088C204.021 384.956 204.021 384.824 204.021 384.692Z" fill="#B1B4B5" fill-opacity="0.15"/>
<defs>
<linearGradient id="paint0_linear_100_2" x1="587.5" y1="202" x2="587.5" y2="298" gradientUnits="userSpaceOnUse">
<stop stop-color="#0164A8"/>
<stop offset="1" stop-color="#00457B"/>
</linearGradient>
<linearGradient id="paint1_linear_100_2" x1="865" y1="202" x2="865" y2="298" gradientUnits="userSpaceOnUse">
<stop stop-color="#E56412"/>
<stop offset="0.681119" stop-color="#B03602"/>
</linearGradient>
</defs>
</svg>
